<svg xmlns="http://www.w3.org/2000/svg" viewBox="0 0 74.4035 62.5986"><defs><style>.a{fill:#86d2da;}.a,.b{fill-rule:evenodd;}.b{fill:#231f20;}</style></defs><path class="a" d="M26.3325,3.9685h0a3.0623,3.0623,0,0,1,3.0537,3.0532V24.4848l.0054,1.06c.0145,2.8148.9652,3.6236,2.1526.2963L33.39,20.2663c1.3226-3.9951,6.622-2.7022,5.1239,1.8233L34.9421,32.8777A12.5458,12.5458,0,0,1,33.32,36.7271c-1.2693,1.8286-3.7085,5.2-4.3149,6.0154l-.0048.0065V53.96H8.134V42.6648L8.0714,42.55,4.2721,35.2925a12.2511,12.2511,0,0,1-1.0414-5.2767V12.2845A3.1584,3.1584,0,0,1,6.38,9.1352h0a3.1583,3.1583,0,0,1,3.149,3.1493V8.6191A3.23,3.23,0,0,1,12.7505,5.398h0a3.23,3.23,0,0,1,3.221,3.2211V4.6539A3.6645,3.6645,0,0,1,19.6263,1h0A3.6643,3.6643,0,0,1,23.28,4.6539V7.0217c0-.085.0034-.1689.01-.2523a3.0632,3.0632,0,0,1,3.0422-2.8009Zm43.17,4.67H48.6357A2.1218,2.1218,0,0,1,46.52,6.5228h0a2.1218,2.1218,0,0,1,2.1155-2.1155h20.867a2.1216,2.1216,0,0,1,2.1155,2.1155h0a2.1216,2.1216,0,0,1-2.1155,2.1155ZM51.3017,58.63a3.0619,3.0619,0,0,0,3.0527-3.0532v2.3678a3.6643,3.6643,0,0,0,3.6535,3.6539h0a3.6647,3.6647,0,0,0,3.6547-3.6539V53.98a3.2206,3.2206,0,0,0,3.2208,3.221h0a3.23,3.23,0,0,0,3.2213-3.221V50.3139l.0026.1114a3.158,3.158,0,0,0,3.1464,3.0378h0a3.1581,3.1581,0,0,0,3.1493-3.1492V32.5826a12.25,12.25,0,0,0-1.0414-5.2767l-3.7993-7.2573L69.5,19.9338V8.6392H48.6338v11.21l-.0051.0068c-.6064.8152-3.0453,4.1867-4.3149,6.0154a12.5448,12.5448,0,0,0-1.6217,3.8494L39.12,40.5091c-1.4981,4.5255,3.8013,5.8184,5.1239,1.8232L46.09,36.758c1.1875-3.3273,2.1382-2.5186,2.1527.2962l.0056,1.06V55.5769A3.0621,3.0621,0,0,0,51.3017,58.63Zm-43.17-4.67H28.9984a2.1218,2.1218,0,0,1,2.1155,2.1155h0a2.1217,2.1217,0,0,1-2.1155,2.1155H8.1315A2.1216,2.1216,0,0,1,6.016,56.0758h0A2.1216,2.1216,0,0,1,8.1315,53.96Z"/><path class="b" d="M6.9035,50.7065a1,1,0,0,1-2,0v-7.8L1.1588,35.7534A9.67,9.67,0,0,1,.2974,33.17,16.65,16.65,0,0,1,0,30.0158V12.2845A4.1353,4.1353,0,0,1,1.2181,9.3572l.0037-.0037a4.1357,4.1357,0,0,1,2.9276-1.218h0a4.1106,4.1106,0,0,1,2.1489.6052V8.6191A4.21,4.21,0,0,1,7.54,5.6393l-.002-.002A4.21,4.21,0,0,1,10.52,4.398h0a4.1809,4.1809,0,0,1,2.221.6378V4.6539A4.65,4.65,0,0,1,20.683,1.3663c.02.02.0383.04.0559.0607a4.66,4.66,0,0,1,1.19,2.177,4.0323,4.0323,0,0,1,5.0349.5564l.002-.0019a4.0414,4.0414,0,0,1,1.19,2.8632V24.4848c0,.0284-.0011.0567-.0034.0845l.0048.9712q.0014.2679.0131.5c.0632-.1576.13-.3325.1987-.5261l1.8411-5.561a4.189,4.189,0,0,1,3.3341-3.0388,3.5583,3.5583,0,0,1,1.5894.1338,3.389,3.389,0,0,1,1.3725.84,4.2475,4.2475,0,0,1,.7265,4.5133L33.6609,33.1906c-.1145.3461-.1911.591-.2619.8184A10.4522,10.4522,0,0,1,31.91,37.2938l-.002.0025.002.0014c-.5528.796-1.3,1.8479-2.0222,2.8542-.811,1.1305-1.6481,2.2831-2.1178,2.9217v7.6329a1,1,0,0,1-2,0V42.749h.0037a.9937.9937,0,0,1,.1848-.5782l.0158-.0221c.3-.4037,1.243-1.7037,2.2882-3.1607.7364-1.027,1.4845-2.0783,2.0069-2.8309l.002.0014a8.901,8.901,0,0,0,1.2209-2.7431c.0915-.294.1879-.6021.27-.85l3.5717-10.7884a2.3723,2.3723,0,0,0-.2418-2.4814,1.3994,1.3994,0,0,0-.5681-.3481,1.5667,1.5667,0,0,0-.6987-.0556,2.2515,2.2515,0,0,0-1.7167,1.6872L30.263,26.1533l-.008.0233A6.0471,6.0471,0,0,1,28.9077,28.6a1.4148,1.4148,0,0,1-1.2869.38,1.4863,1.4863,0,0,1-.9879-.7982,5.9787,5.9787,0,0,1-.468-2.6331L26.16,24.58c-.0031-.0312-.0045-.0626-.0045-.0947V7.0217a2.047,2.047,0,0,0-.6038-1.4493l.002-.002-.002-.0017a2.0549,2.0549,0,0,0-3.5025,1.453h-2V4.6539a2.6494,2.6494,0,0,0-.7367-1.8328L19.2691,2.78a2.6541,2.6541,0,0,0-4.5278,1.8737V8.6191h-2a2.2119,2.2119,0,0,0-.6494-1.5679l-.0037-.0037A2.2119,2.2119,0,0,0,10.52,6.3981h0a2.215,2.215,0,0,0-1.5682.6531l-.002-.002-.0017.002a2.2119,2.2119,0,0,0-.6494,1.5679v3.6654h-2A2.1513,2.1513,0,0,0,4.15,10.1356h0A2.1515,2.1515,0,0,0,2,12.2845V30.0158a14.6625,14.6625,0,0,0,.2583,2.7714,7.7238,7.7238,0,0,0,.6664,2.0444L6.7125,42.067l.0036.0068.0222.0406a.9938.9938,0,0,1,.1652.55Z"/><path class="b" d="M5.9009,52.96H26.7681a3.1069,3.1069,0,0,1,2.1989.9164l.002-.002a3.1156,3.1156,0,0,1-2.2009,5.3167H5.9009a3.1045,3.1045,0,0,1-2.1974-.9145L3.7,58.2733a3.0974,3.0974,0,0,1,0-4.3949l.002-.0017-.002-.002A3.1069,3.1069,0,0,1,5.9009,52.96Zm20.8672,2H5.9009a1.1127,1.1127,0,0,0-.7872.3283L5.112,55.287a1.1155,1.1155,0,0,0,.7889,1.9043H26.7681a1.1132,1.1132,0,0,0,.7869-1.9026l.002-.002-.002-.0017A1.1093,1.1093,0,0,0,26.7681,54.96Z"/><path class="b" d="M6.2986,12.1734a1,1,0,0,1,2,0v9.4547a1,1,0,1,1-2,0Z"/><path class="b" d="M12.7432,8.0878a1,1,0,0,1,2,0v13.54a1,1,0,1,1-2,0Z"/><path class="b" d="M20.0486,6.7694a1,1,0,0,1,2,0V21.6281a1,1,0,1,1-2,0Z"/><path class="b" d="M66.27,11.8922a1,1,0,0,1,2,0v7.8l3.7446,7.1533a9.6685,9.6685,0,0,1,.8614,2.5835,16.65,16.65,0,0,1,.2974,3.1541V50.3141a4.1355,4.1355,0,0,1-1.2181,2.9274l-.0037.0037a4.1361,4.1361,0,0,1-2.9276,1.218h0a4.1115,4.1115,0,0,1-2.1489-.6052V53.98a4.21,4.21,0,0,1-1.2413,2.98l.002.002a4.21,4.21,0,0,1-2.9821,1.2393h0a4.1818,4.1818,0,0,1-2.221-.6378v.3818A4.65,4.65,0,0,1,52.49,61.2323c-.02-.02-.0383-.04-.0559-.0606a4.6583,4.6583,0,0,1-1.19-2.177,4.0549,4.0549,0,0,1-6.2269-3.4178V38.1138c0-.0283.0011-.0567.0034-.0844l-.0048-.9712q-.0013-.2679-.0131-.5c-.0632.1576-.13.3325-.1987.5261l-1.8411,5.561A4.1888,4.1888,0,0,1,39.63,45.6837a3.5578,3.5578,0,0,1-1.59-.1338,3.3857,3.3857,0,0,1-1.3725-.84,4.2484,4.2484,0,0,1-.7265-4.5136l3.5716-10.7881c.1146-.3462.1911-.5911.262-.8184a10.45,10.45,0,0,1,1.4887-3.2848l.002-.0025-.002-.0015c.5528-.7959,1.3-1.8479,2.0222-2.8542.811-1.13,1.6481-2.283,2.1178-2.9216V11.8922a1,1,0,0,1,2,0V19.85H47.4a.9938.9938,0,0,1-.1848.5783l-.0158.0221c-.3.4037-1.243,1.7036-2.2882,3.1606-.7364,1.027-1.4845,2.0784-2.0069,2.831l-.002-.0014a8.9,8.9,0,0,0-1.2209,2.7431c-.0915.2939-.1879.6021-.27.85L37.8394,40.8215a2.3735,2.3735,0,0,0,.2418,2.4817,1.4005,1.4005,0,0,0,.5681.3481,1.5681,1.5681,0,0,0,.699.0556A2.2516,2.2516,0,0,0,41.0647,42.02L42.91,36.4454l.008-.0233a6.0464,6.0464,0,0,1,1.3473-2.4236,1.414,1.414,0,0,1,1.2869-.38,1.4866,1.4866,0,0,1,.9879.7983,5.9784,5.9784,0,0,1,.468,2.6331l.0048.9688c.0031.0312.0045.0627.0045.0947V55.5769a2.0532,2.0532,0,0,0,4.1063,0h2v2.3678a2.65,2.65,0,0,0,.7367,1.8329l.0434.0408a2.6541,2.6541,0,0,0,4.5278-1.8737V53.98h2a2.2119,2.2119,0,0,0,.6494,1.5679l.0037.0036a2.2115,2.2115,0,0,0,1.5679.65h0a2.215,2.215,0,0,0,1.5682-.6531l.002.0019.0017-.0019a2.2119,2.2119,0,0,0,.6494-1.5679V50.3141h2a2.1515,2.1515,0,0,0,2.1489,2.149h0a2.1516,2.1516,0,0,0,2.1493-2.149V32.5829a14.6642,14.6642,0,0,0-.2583-2.7715,7.7231,7.7231,0,0,0-.6664-2.0443l-3.7877-7.2355-.0036-.0068-.0222-.04a.9941.9941,0,0,1-.1652-.55Z"/><path class="b" d="M67.2724,9.6384H46.4052a3.1156,3.1156,0,0,1,0-6.2311H67.2724a3.1049,3.1049,0,0,1,2.1974.9144l.0037.0037a3.0973,3.0973,0,0,1,0,4.3948l-.0037.0037a3.1049,3.1049,0,0,1-2.1974.9145Zm-20.8672-2H67.2724a1.1155,1.1155,0,1,0,0-2.2309H46.4052a1.1155,1.1155,0,0,0,0,2.2309Z"/><path class="b" d="M66.8747,50.4253a1,1,0,0,1-2,0V40.9706a1,1,0,1,1,2,0Z"/><path class="b" d="M60.43,54.5105a1,1,0,1,1-2,0v-13.54a1,1,0,1,1,2,0Z"/><path class="b" d="M53.1247,55.8292a1,1,0,1,1-2,0V40.9706a1,1,0,1,1,2,0Z"/></svg>