<svg xmlns="http://www.w3.org/2000/svg" viewBox="0 0 55.6833 53.6706"><defs><style>.a{fill:#e75864;}.a,.b{fill-rule:evenodd;}.b{fill:#231f20;}</style></defs><polygon class="a" points="20.401 1 39.295 1 39.295 17.388 55.683 17.388 55.683 36.283 39.295 36.283 39.295 52.671 20.401 52.671 20.401 36.283 4.013 36.283 4.013 17.388 20.401 17.388 20.401 1"/><path class="b" d="M18.3884,14.4a1,1,0,0,1-2,0V1a1,1,0,0,1,1-1H36.2829a1,1,0,0,1,1,1V14.4a1,1,0,0,1-2,0V2H18.3884V14.4Zm20.882,3.988a1,1,0,1,1,0-2h13.4a1,1,0,0,1,1,1V36.2829a1,1,0,0,1-1,1H39.27a1,1,0,1,1,0-2h12.4V18.3883ZM35.2829,39.27a1,1,0,1,1,2,0v13.4a1,1,0,0,1-1,1H17.3883a1,1,0,0,1-1-1V39.27a1,1,0,1,1,2,0v12.4H35.2829V39.27ZM14.4,35.2828a1,1,0,1,1,0,2H1a1,1,0,0,1-1-1V17.3883a1,1,0,0,1,1-1H14.4a1,1,0,1,1,0,2H2V35.2828Z"/></svg>