<svg xmlns="http://www.w3.org/2000/svg" viewBox="0 0 68.4714 63.2461"><defs><style>.a{fill:#fff;}.b{fill:#86d2da;}.b,.c,.d,.e{fill-rule:evenodd;}.c{fill:#d1d3d4;}.d{fill:#e75864;}.e{fill:#231f20;}</style></defs><rect class="a" x="31.7443" y="49.1732" width="8.2919" height="13.0728"/><rect class="a" x="55.8068" y="50.2005" width="5.8714" height="5.8714"/><rect class="a" x="55.8068" y="38.5302" width="5.8714" height="5.8714"/><rect class="a" x="55.8068" y="26.8603" width="5.8714" height="5.8711"/><rect class="a" x="10.1032" y="50.2005" width="5.8712" height="5.8714"/><rect class="a" x="10.1032" y="38.5302" width="5.8712" height="5.8714"/><rect class="a" x="10.1032" y="26.8603" width="5.8712" height="5.8711"/><rect class="a" x="24.6087" y="22.6738" width="22.5641" height="4.2593"/><rect class="a" x="24.6087" y="31.2367" width="22.5641" height="4.2593"/><rect class="a" x="24.6087" y="39.7993" width="22.5641" height="4.2593"/><path class="b" d="M51.1444,20.6856H66.3409v41.56H51.1444v-41.56ZM55.8068,26.86v5.8711h5.8714V26.86Zm0,11.67v5.8714h5.8714V38.53Zm0,11.67v5.8714h5.8714V50.2005Z"/><path class="b" d="M5.4405,20.6856H20.6368v41.56H5.4405v-41.56ZM10.1032,26.86v5.8711h5.8712V26.86Zm0,11.67v5.8714h5.8712V38.53Zm0,11.67v5.8714h5.8712V50.2005Z"/><path class="c" d="M3.31,20.6858H20.6368V16.4489H3.31v4.2369Zm47.8347,0h17.327V16.4489H51.1444Z"/><path class="c" d="M20.6368,1H51.1444V62.246H40.0362V49.1732H31.7443V62.246H20.6368V1Zm3.9719,38.7992v4.2593H47.1728V39.7993Zm0-8.5626V35.496H47.1728V31.2367Zm0-8.5629v4.2593H47.1728V22.6738Z"/><polygon class="d" points="33.631 5.874 38.15 5.874 38.15 9.64 41.916 9.64 41.916 14.16 38.15 14.16 38.15 17.926 33.631 17.926 33.631 14.16 29.865 14.16 29.865 9.64 33.631 9.64 33.631 5.874"/><path class="e" d="M15.1172,15.4486a1,1,0,0,1,0,2H2v2.2368H15.1172a1,1,0,0,1,0,2H1a1,1,0,0,1-1-1v-4.237a1,1,0,0,1,1-1Zm36.9272,6.237a1,1,0,1,1,0-2h13.117V17.4487H52.0444a1,1,0,1,1,0-2H66.1615a1,1,0,0,1,1,1v4.237a1,1,0,0,1-1,1Z"/><path class="e" d="M19.3269,59.1662a1,1,0,0,1-2,0V1a1,1,0,0,1,1-1H48.8344a1,1,0,0,1,1,1V59.1662a1,1,0,0,1-2,0V2H19.3269V59.1662Zm43.704-38.2235V61.2459H38.7264V49.1732a1,1,0,0,0-1-1H29.4344a1,1,0,0,0-1,1V61.2459H4.1306V20.9427a1,1,0,1,0-2,0V62.246a1,1,0,0,0,1,1H29.4344a1,1,0,0,0,1-1V50.1732h6.2917V62.246a1,1,0,0,0,1,1H64.031a1,1,0,0,0,1-1V20.9427a1,1,0,1,0-2,0Z"/><path class="e" d="M53.4968,25.86h5.8714a1,1,0,0,1,1,1v5.8714a1,1,0,0,1-1,1H53.4968a1,1,0,0,1-1-1V26.86a1,1,0,0,1,1-1Zm4.8714,2H54.4969v3.8713h3.8713Z"/><path class="e" d="M53.4968,37.53h5.8714a1,1,0,0,1,1,1v5.8714a1,1,0,0,1-1,1H53.4968a1,1,0,0,1-1-1V38.53a1,1,0,0,1,1-1Zm4.8714,2H54.4969v3.8713h3.8713Z"/><path class="e" d="M53.4968,49.2h5.8714a1,1,0,0,1,1,1v5.8714a1,1,0,0,1-1,1H53.4968a1,1,0,0,1-1-1V50.2005a1,1,0,0,1,1-1Zm4.8714,2H54.4969v3.8713h3.8713Z"/><path class="e" d="M22.2987,21.6737H44.8628a1,1,0,0,1,1,1v4.2593a1,1,0,0,1-1,1H22.2987a1,1,0,0,1-1-1V22.6738a1,1,0,0,1,1-1Zm21.564,2H23.2988v2.2593H43.8627Z"/><path class="e" d="M22.2987,30.2366H44.8628a1,1,0,0,1,1,1V35.496a1,1,0,0,1-1,1H22.2987a1,1,0,0,1-1-1V31.2367a1,1,0,0,1,1-1Zm21.564,2H23.2988V34.496H43.8627Z"/><path class="e" d="M22.2987,38.7992H44.8628a1,1,0,0,1,1,1v4.2593a1,1,0,0,1-1,1H22.2987a1,1,0,0,1-1-1V39.7993a1,1,0,0,1,1-1Zm21.564,2H23.2988v2.2592H43.8627Z"/><path class="e" d="M31.3206,4.8745H35.84a1,1,0,0,1,1,1V8.64h2.766a1,1,0,0,1,1,1V14.16a1,1,0,0,1-1,1H36.84v2.766a1,1,0,0,1-1,1H31.3206a1,1,0,0,1-1-1V15.16H27.555a1,1,0,0,1-1-1V9.64a1,1,0,0,1,1-1h2.7655V5.8745a1,1,0,0,1,1-1Zm3.5192,2H32.3206V9.64a1,1,0,0,1-1,1H28.5551V13.16h2.7655a1,1,0,0,1,1,1v2.7661H34.84V14.16a1,1,0,0,1,1-1h2.7661V10.64H35.84a1,1,0,0,1-1-1Z"/><path class="e" d="M7.793,25.86h5.8714a1,1,0,0,1,1,1v5.8714a1,1,0,0,1-1,1H7.793a1,1,0,0,1-1-1V26.86a1,1,0,0,1,1-1Zm4.8713,2H8.7931v3.8713h3.8712Z"/><path class="e" d="M7.793,37.53h5.8714a1,1,0,0,1,1,1v5.8714a1,1,0,0,1-1,1H7.793a1,1,0,0,1-1-1V38.53a1,1,0,0,1,1-1Zm4.8713,2H8.7931v3.8713h3.8712Z"/><path class="e" d="M7.793,49.2h5.8714a1,1,0,0,1,1,1v5.8714a1,1,0,0,1-1,1H7.793a1,1,0,0,1-1-1V50.2005a1,1,0,0,1,1-1Zm4.8713,2H8.7931v3.8713h3.8712Z"/></svg>