<svg xmlns="http://www.w3.org/2000/svg" viewBox="0 0 35.9781 74.2649"><defs><style>.a,.b{fill:#fff;}.a,.c,.e,.f,.g{fill-rule:evenodd;}.c{fill:#86d2da;}.d,.e{fill:#d1d3d4;}.f{fill:#e75864;}.g{fill:#231f20;}</style></defs><path class="a" d="M13.4294,29.0463l12.26-.0065,6.53,1.5477c2.0194.4419,3.759,1.6929,3.759,3.7585v35.16a3.77,3.77,0,0,1-3.759,3.7585H7.2391a3.77,3.77,0,0,1-3.7585-3.7585V34.346c0-2.0671,1.7465-3.2828,3.7585-3.7585Z"/><rect class="b" x="17.8191" y="9.7458" width="3.82" height="7.9038"/><path class="c" d="M35.9781,45.0014V69.5063a3.77,3.77,0,0,1-3.7587,3.7585H7.2394a3.77,3.77,0,0,1-3.7588-3.7585V45.0014Z"/><rect class="d" x="13.0736" y="21.5824" width="13.3115" height="7.6343"/><rect class="d" x="15.421" y="17.6496" width="8.6171" height="3.9328"/><polygon class="e" points="12.887 1 25.615 1 34.911 2.664 34.911 7.147 25.713 5.483 22.923 5.483 22.923 9.746 16.536 9.746 16.536 5.483 12.887 5.483 12.887 1"/><polygon class="f" points="16.454 43.799 23.004 43.799 23.004 49.258 28.464 49.258 28.464 55.809 23.004 55.809 23.004 61.269 16.454 61.269 16.454 55.809 10.995 55.809 10.995 49.258 16.454 49.258 16.454 43.799"/><path class="g" d="M26.962,31.0017a.9991.9991,0,0,1,.4218-1.9531l2.5656.5624a6.6089,6.6089,0,0,1,3.2658,1.6667,4.2246,4.2246,0,0,1,1.2824,3.0683v35.16a4.7709,4.7709,0,0,1-4.7591,4.7586H4.7585a4.7454,4.7454,0,0,1-3.3613-1.3972c-.0193-.0193-.0374-.0391-.055-.06A4.7412,4.7412,0,0,1,0,69.5063V34.346a4.1839,4.1839,0,0,1,1.2722-3.0447,6.8182,6.8182,0,0,1,3.26-1.6866l2.5662-.6064a.9989.9989,0,0,1,.453,1.9457L4.985,31.56a4.83,4.83,0,0,0-2.2989,1.1548A2.2443,2.2443,0,0,0,2,34.346v35.16a2.7544,2.7544,0,0,0,.7673,1.9063l.0437.0411a2.75,2.75,0,0,0,1.9474.811h24.98a2.77,2.77,0,0,0,2.759-2.7584V34.346a2.2816,2.2816,0,0,0-.6962-1.6543,4.6151,4.6151,0,0,0-2.2737-1.1277Z"/><path class="g" d="M10.5928,20.5823H23.9045a1,1,0,0,1,1,1v7.6343a1,1,0,0,1-1,1H10.5928a1,1,0,0,1-1-1V21.5824a1,1,0,0,1,1-1Zm12.3117,2H11.5928v5.6341H22.9045Z"/><path class="g" d="M20.5571,20.5823V18.65H13.94v1.9326Zm2-2.9327v3.9328a1,1,0,0,1-1,1H12.94a1,1,0,0,1-1-1V17.65a1,1,0,0,1,1-1h8.6171A1,1,0,0,1,22.5572,17.65Z"/><path class="g" d="M20.1586,9.7458V17.65a1,1,0,0,1-1,1h-3.82a1,1,0,0,1-1-1V9.7458a1,1,0,0,1,1-1h3.82a1,1,0,0,1,1,1Zm-2,6.9038V10.7458h-1.82V16.65Z"/><path class="g" d="M10.4068,0H23.1341a.9959.9959,0,0,1,.2647.0354l9.2073,1.6481a.9967.9967,0,0,1,.8206.9805H33.43V7.147a1.0006,1.0006,0,0,1-1.2666.964l-9-1.6279H21.4427V9.7458a1,1,0,0,1-1,1H14.055a1,1,0,0,1-1-1V6.4831H10.4068a1,1,0,0,1-1-1V1a1,1,0,0,1,1-1ZM23.0675,2H11.4069V4.483H14.055a1,1,0,0,1,1,1V8.7457h4.3874V5.483a1,1,0,0,1,1-1h2.7893v.0037a1.02,1.02,0,0,1,.1757.0158L31.43,5.9539V3.4968Z"/><path class="g" d="M13.9728,42.7992h6.5511a1,1,0,0,1,1,1v4.4589h4.4592a1,1,0,0,1,1,1v6.5509a1,1,0,0,1-1,1H21.524v4.4595a1,1,0,0,1-1,1H13.9728a1,1,0,0,1-1-1V56.8091H8.5141a1,1,0,0,1-1-1V49.2582a1,1,0,0,1,1-1h4.4586V43.7992a1,1,0,0,1,1-1Zm5.5511,2h-4.551v4.4589a1,1,0,0,1-1,1H9.5142V54.809h4.4586a1,1,0,0,1,1,1v4.4594h4.551V55.8091a1,1,0,0,1,1-1h4.4592V50.2583H20.5239a1,1,0,0,1-1-1Z"/><path class="g" d="M4.8016,36.7469a1,1,0,1,1,0-2H29.6954a1,1,0,1,1,0,2Z"/></svg>