<svg xmlns="http://www.w3.org/2000/svg" viewBox="0 0 65.0047 54.1562"><defs><style>.a{fill:#86d2da;}.a,.b,.c{fill-rule:evenodd;}.b{fill:#fff;}.c{fill:#231f20;}</style></defs><path class="a" d="M4.2035,34.0467H65.0047V53.1561H4.2035V34.0467Zm0,0H65.0047L55.7371,21.8721H13.5717L4.2035,34.0464Zm16.1309-8.337h28.54a2.1347,2.1347,0,0,1,2.1291,2.1288h0a2.1349,2.1349,0,0,1-2.1291,2.13h-28.54a2.1354,2.1354,0,0,1-2.1291-2.13h0A2.1352,2.1352,0,0,1,20.3344,25.7094Z"/><path class="b" d="M10.99,3.1482c7.2932-2.2964,14.8889-3.39,23.644,0,8.8745,3.1118,16.4979,2.1716,23.5848,0l-13.28,22.5612h3.9359a2.1347,2.1347,0,0,1,2.1291,2.1288h0a2.1349,2.1349,0,0,1-2.1291,2.13h-28.54a2.1355,2.1355,0,0,1-2.1291-2.13h0a2.1353,2.1353,0,0,1,2.1291-2.1288h4.102Z"/><path class="c" d="M1,33.0466H61.8013a1,1,0,0,1,1,1V53.1561a1,1,0,0,1-1,1H1a1,1,0,0,1-1-1V34.0467a1,1,0,0,1,1-1Zm59.8011,2H2V52.1561h58.801Z"/><path class="c" d="M14.7575,20.8721a1,1,0,0,1,0,2H10.857L3.0277,33.0463H59.7858L52.041,22.8722H48.0439a1,1,0,1,1,0-2h4.49v.0022a.9962.9962,0,0,1,.7931.3924l9.2276,12.1218a1,1,0,0,1-.7531,1.6579H1v-.0031a.9969.9969,0,0,1-.7892-1.6064L9.5321,21.3236a.9991.9991,0,0,1,.8362-.4515Z"/><path class="c" d="M22.1193,25.25a.9968.9968,0,0,1-1.711,1.0233L6.9307,3.66A.9972.9972,0,0,1,7.49,2.1966l-.0006-.0014A43.2683,43.2683,0,0,1,19.029.02,31.68,31.68,0,0,1,31.7679,2.21a33.1013,33.1013,0,0,0,12.098,1.9236A41.0882,41.0882,0,0,0,54.722,2.1952a.9971.9971,0,0,1,1.13,1.4955L42.5636,26.2658a.9963.9963,0,1,1-1.7189-1.008L52.8959,4.7843A40.5743,40.5743,0,0,1,43.92,6.126,35.04,35.04,0,0,1,31.102,4.09l-.0311-.0116a29.7481,29.7481,0,0,0-11.98-2.0662A39.6027,39.6027,0,0,0,9.2951,3.733Z"/><path class="c" d="M45.67,26.71a1,1,0,0,1,0-2,3.1186,3.1186,0,0,1,2.2074.9182l.0036.0037a3.1115,3.1115,0,0,1,0,4.4146l-.0019.0017.0019.002a3.1208,3.1208,0,0,1-2.211.9185H17.13a3.1207,3.1207,0,0,1-2.2085-.9207l-.002.0019a3.1292,3.1292,0,0,1,2.2105-5.34,1,1,0,0,1,0,2,1.1268,1.1268,0,0,0-.7966,1.9258l-.002.002.002.0017a1.124,1.124,0,0,0,.7966.3288H45.67a1.1263,1.1263,0,0,0,.7971-.3322l.0017.002a1.1313,1.1313,0,0,0,.002-1.5962l-.0037-.0037A1.1323,1.1323,0,0,0,45.67,26.71Z"/><path class="c" d="M20.77,15.4426a.9967.9967,0,1,1,1.7421-.9689l6.0061,10.8037a.9967.9967,0,0,1-1.7422.9689Z"/><path class="c" d="M40.29,14.4737a.9967.9967,0,0,1,1.7422.9689L36.0261,26.2463a.9967.9967,0,0,1-1.7422-.9689Z"/></svg>