<svg xmlns="http://www.w3.org/2000/svg" viewBox="0 0 68.0472 62.7255"><defs><style>.a{fill:#e75864;}.a,.b,.c{fill-rule:evenodd;}.b{fill:#86d2da;}.c{fill:#231f20;}</style></defs><path class="a" d="M46.98,20.384a7.1767,7.1767,0,0,0-5.8814,7.0738V47.2357c0,3.8387,2.664,8.4541,6.3043,9.8873l8.9776,3.5339c8.041,3.1635,10.9361-1.1511,11.5268-6.827.73-7.0168-1.463-14.3319-5.0355-20.3224C59.861,28.46,53.8521,18.9187,46.98,20.384Z"/><path class="a" d="M24.5274,20.384a7.1766,7.1766,0,0,1,5.881,7.0738V47.2357c0,3.8387-2.664,8.4541-6.3039,9.8873l-8.9779,3.5339C7.0856,63.82,4.1908,59.5058,3.6,53.83,2.87,46.8131,5.063,39.498,8.6355,33.5075,11.6465,28.46,17.6554,18.9187,24.5274,20.384Z"/><polygon class="b" points="33.153 1 38.355 1 38.355 22.907 49.622 33.216 46.076 37.022 35.754 27.577 25.432 37.021 21.886 33.216 33.153 22.907 33.153 1"/><path class="c" d="M20.0946,33.9506a.9954.9954,0,1,1-1.3436-1.4689L29.69,22.4725V1a1,1,0,0,1,1-1h5.2013a1,1,0,0,1,1,1V22.4725L47.8307,32.4817a.9954.9954,0,1,1-1.3436,1.4689L35.2911,23.7064a.9993.9993,0,0,1-.4-.8V2H31.69V22.9065h-.0048a.9944.9944,0,0,1-.3235.7345l-11.2674,10.31Zm24.19,2.3369L33.9625,26.8427a.9958.9958,0,0,0-1.3436,0L22.2974,36.2869a.9954.9954,0,1,0,1.3436,1.4689l9.65-8.8294,9.65,8.83a.9954.9954,0,1,0,1.3436-1.4689Z"/><path class="c" d="M37.6359,36.5763a1,1,0,1,1,2,0V47.2357a10.5176,10.5176,0,0,0,1.7183,5.4561,8.7021,8.7021,0,0,0,3.949,3.5014l8.9779,3.5342a13.9816,13.9816,0,0,0,3.6218.9573,5.4933,5.4933,0,0,0,3.71-.7356,5.6981,5.6981,0,0,0,2.0543-2.7558,13.3019,13.3019,0,0,0,.7846-3.4651,28.511,28.511,0,0,0-.7715-9.7753,36.9063,36.9063,0,0,0-4.1276-9.934,49.29,49.29,0,0,0-6.3612-8.824c-2.5217-2.61-5.4451-4.479-8.4682-3.8347a6.9263,6.9263,0,0,0-1.9965.76,6.3143,6.3143,0,0,0-1.5984,1.2923.9963.9963,0,0,1-1.4922-1.32,8.32,8.32,0,0,1,2.0985-1.7061,8.94,8.94,0,0,1,2.5747-.9786c3.8486-.82,7.3664,1.3488,10.32,4.4051a51.0789,51.0789,0,0,1,6.6345,9.1834,38.9337,38.9337,0,0,1,4.3543,10.4805,30.4821,30.4821,0,0,1,.8181,10.455,15.3,15.3,0,0,1-.9094,3.989,7.6426,7.6426,0,0,1-2.8122,3.6929A7.4031,7.4031,0,0,1,57.7,62.6689a15.9265,15.9265,0,0,1-4.1456-1.0819l-8.9779-3.5343a10.7,10.7,0,0,1-4.902-4.2905,12.561,12.561,0,0,1-2.0387-6.5265Z"/><path class="c" d="M26.9456,36.5763a1,1,0,1,1,2,0V47.2357a12.5572,12.5572,0,0,1-2.0387,6.5262,10.7053,10.7053,0,0,1-4.9022,4.2908l-8.9776,3.534a15.9245,15.9245,0,0,1-4.146,1.082,7.4026,7.4026,0,0,1-5.0148-1.056A7.6408,7.6408,0,0,1,1.0543,57.92a15.2975,15.2975,0,0,1-.9094-3.9892A30.4969,30.4969,0,0,1,.963,43.4758a38.931,38.931,0,0,1,4.354-10.48,51.0571,51.0571,0,0,1,6.6348-9.1834c2.9528-3.0563,6.4709-5.2254,10.32-4.4048a8.9287,8.9287,0,0,1,2.5747.9783,8.3107,8.3107,0,0,1,2.0988,1.7061.9963.9963,0,0,1-1.4922,1.32A6.317,6.317,0,0,0,23.8539,22.12a6.9217,6.9217,0,0,0-1.9964-.7594c-3.0232-.6446-5.9466,1.2248-8.468,3.8344a49.2829,49.2829,0,0,0-6.3615,8.824,36.8975,36.8975,0,0,0-4.1272,9.9337,28.517,28.517,0,0,0-.7716,9.7756,13.3106,13.3106,0,0,0,.7846,3.4653,5.6968,5.6968,0,0,0,2.0543,2.7553,5.4923,5.4923,0,0,0,3.71.7356A13.9743,13.9743,0,0,0,12.3,59.7271l8.9777-3.5339a8.7056,8.7056,0,0,0,3.9492-3.5016,10.5164,10.5164,0,0,0,1.7183-5.4559Z"/><path class="c" d="M12.3143,49.6522a.9978.9978,0,1,1,1.211-1.5862l4.6383,3.5555a.9978.9978,0,1,1-1.2109,1.5862Z"/><path class="c" d="M12.71,41.9182a.9974.9974,0,0,1,.2659,1.9769l-5.7206.773a.9974.9974,0,0,1-.2659-1.9769Z"/><path class="c" d="M11.7885,36.9369a.9963.9963,0,0,1,.25-1.9769l7.4291.9626a.996.996,0,0,1,.5493,1.7215l.0014.0014-6.1738,5.696V48.858a.9994.9994,0,0,1-.4031.8025L8.1466,54.0332A.9988.9988,0,0,1,6.8732,52.494l4.9712-4.1054V42.9061h.0022a.9953.9953,0,0,1,.322-.7345l4.9286-4.5468Z"/><path class="c" d="M15.5645,40.2234a.9984.9984,0,0,1,1.8205-.82L19.55,44.1938a.9984.9984,0,1,1-1.82.82Z"/><path class="c" d="M53.0564,48.066a.9978.9978,0,0,1,1.211,1.5862L49.629,53.2077a.9978.9978,0,1,1-1.2109-1.5862Z"/><path class="c" d="M53.6061,43.8951a.9973.9973,0,0,1,.2658-1.9769l5.7206.773a.9973.9973,0,0,1-.2658,1.9769Z"/><path class="c" d="M54.5432,34.96a.9963.9963,0,0,1,.25,1.9769l-5.3087.6879,4.9286,4.5468a.9953.9953,0,0,1,.322.7345h.0023v5.4825l4.9708,4.1054a.9988.9988,0,0,1-1.2733,1.5392L53.14,49.6605a.9994.9994,0,0,1-.4031-.8025V43.3415l-6.1738-5.696.0014-.0014a.996.996,0,0,1,.5494-1.7215Z"/><path class="c" d="M49.1968,39.403a.9984.9984,0,0,1,1.82.82l-2.1657,4.7908a.9984.9984,0,1,1-1.82-.82Z"/></svg>