<svg xmlns="http://www.w3.org/2000/svg" viewBox="0 0 57.0928 63.8178"><defs><style>.a,.c{fill:#d1d3d4;}.a,.b,.d{fill-rule:evenodd;}.b{fill:#86d2da;}.d{fill:#231f20;}</style></defs><path class="a" d="M10.75,7.7278h8.9311A1.8774,1.8774,0,0,1,21.5532,9.6v2.2351a5.1181,5.1181,0,0,0,0,10.2135V34.3261a1.8774,1.8774,0,0,1-1.872,1.872H10.75a1.8775,1.8775,0,0,1-1.872-1.872V9.6A1.8776,1.8776,0,0,1,10.75,7.7278Z"/><path class="b" d="M12.6734,1h5.0848a1.0679,1.0679,0,0,1,1.0652,1.0652V7.7278H11.6078V2.0653A1.068,1.068,0,0,1,12.6734,1Zm4.1292,16.4616c-.0085-.0836-.0147-.1678-.0193-.2526.0046.0848.0111.1692.0193.2526Zm-.0193-.7875c.0046-.0847.0108-.1689.0193-.2525-.0085.0836-.0147.1678-.0193.2525Zm2.04,19.5239V41.86a1.068,1.068,0,0,1-1.0652,1.0656H12.6734A1.0682,1.0682,0,0,1,11.6078,41.86V36.1981Z"/><path class="b" d="M21.895,11.823a5.1187,5.1187,0,1,1-5.1188,5.1188A5.1188,5.1188,0,0,1,21.895,11.823Z"/><path class="b" d="M46.8555,35.7111a6.7765,6.7765,0,1,1-6.7765,6.7765A6.7768,6.7768,0,0,1,46.8555,35.7111Z"/><path class="a" d="M32.6712,39.9036H40.59a6.7771,6.7771,0,0,0,11.628,6.7272V55.406H29.4023V43.1722A3.2777,3.2777,0,0,1,32.6712,39.9036Z"/><path class="c" d="M4.9024,55.406h51.096A1.0944,1.0944,0,0,1,57.0928,56.5v5.2228a1.0945,1.0945,0,0,1-1.0945,1.0945H4.9024A1.0944,1.0944,0,0,1,3.808,61.7233V56.5A1.0944,1.0944,0,0,1,4.9024,55.406Z"/><path class="b" d="M6.9939,50.68H23.4377a1.0681,1.0681,0,0,1,1.0652,1.0652V55.406H5.9283V51.7453A1.0682,1.0682,0,0,1,6.9939,50.68Z"/><path class="a" d="M52.2178,38.3445V30.0353c0-8.8472-8.3384-17.3134-17.1357-17.6252H24.2761a5.1189,5.1189,0,0,1,.62,8.6777h7.2119c2.3408-.0485,10.5548,1.3966,10.4573,10.8487v5.3056a6.776,6.776,0,0,1,9.6522,1.1024Z"/><path class="d" d="M17.7451,25.1762a1,1,0,1,1,2,0v9.15a2.8782,2.8782,0,0,1-2.872,2.8721H7.9421A2.8782,2.8782,0,0,1,5.07,34.3261V9.6A2.8784,2.8784,0,0,1,7.9421,6.7277h8.9311a2.8564,2.8564,0,0,1,1.5.4292,2.8972,2.8972,0,0,1,1.06,1.1506.9976.9976,0,0,1-1.7813.8986.8919.8919,0,0,0-.3262-.3535.862.862,0,0,0-.453-.1247H7.9421A.8768.8768,0,0,0,7.07,9.6V34.3261a.877.877,0,0,0,.872.872h8.9311a.877.877,0,0,0,.8719-.872Z"/><path class="d" d="M9.8,4.3152a1,1,0,0,1-2,0v-2.25A2.0687,2.0687,0,0,1,9.8654,0H14.95a2.0692,2.0692,0,0,1,2.0656,2.0653v2.25a1,1,0,0,1-2,0v-2.25A.0681.0681,0,0,0,14.95,2H9.8654A.0674.0674,0,0,0,9.8,2.0653v2.25Zm5.2155,35.21a1,1,0,1,1,2,0V41.86A2.0711,2.0711,0,0,1,14.95,43.9259H9.8654A2.07,2.07,0,0,1,7.8,41.86V39.5252a1,1,0,1,1,2,0V41.86a.0689.0689,0,0,0,.0655.0655H14.95a.07.07,0,0,0,.0655-.0655Z"/><path class="d" d="M19.0868,10.8229a6.1195,6.1195,0,1,1-4.3263,1.7924,6.1,6.1,0,0,1,4.3263-1.7924Zm2.9126,3.2063a4.1195,4.1195,0,1,0,1.2061,2.9126A4.1064,4.1064,0,0,0,21.9994,14.0292Z"/><path class="d" d="M44.0475,34.7111a7.7766,7.7766,0,1,1-5.4949,13.2752l-.0037-.0037a7.7747,7.7747,0,0,1,5.4986-13.2715Zm4.0847,3.6918a5.7771,5.7771,0,1,0,1.6918,4.0847A5.7593,5.7593,0,0,0,48.1322,38.4029Z"/><path class="d" d="M48.41,51.1155a1,1,0,1,1,2,0V55.406a1,1,0,0,1-1,1H26.5943a1,1,0,0,1-1-1V43.1722a4.2574,4.2574,0,0,1,1.2551-3.0135l-.0019-.002a4.2561,4.2561,0,0,1,3.0157-1.2532h4.1162a1,1,0,1,1,0,2H29.8632a2.2625,2.2625,0,0,0-1.6018.667l-.002-.002-.0017.002a2.2589,2.2589,0,0,0-.6633,1.6016V54.4059H48.41Z"/><path class="d" d="M55.2849,56.5v5.2229A2.0984,2.0984,0,0,1,53.19,63.8178H2.0945A2.0982,2.0982,0,0,1,0,61.7233V56.5a2.0982,2.0982,0,0,1,2.0945-2.0945H53.19A2.0984,2.0984,0,0,1,55.2849,56.5Zm-2,5.2229V56.5a.0971.0971,0,0,0-.0944-.0944H2.0945A.0969.0969,0,0,0,2,56.5v5.2229a.0969.0969,0,0,0,.0944.0944H53.19a.0971.0971,0,0,0,.0944-.0944Z"/><path class="d" d="M4.1859,49.68H20.6294a2.0692,2.0692,0,0,1,2.0656,2.0653V55.406a1,1,0,0,1-1,1H3.12a1,1,0,0,1-1-1V51.7453A2.0687,2.0687,0,0,1,4.1859,49.68Zm16.4435,2H4.1859a.0674.0674,0,0,0-.0655.0652v2.6606H20.6949V51.7453a.0646.0646,0,0,0-.02-.0453A.0654.0654,0,0,0,20.6294,51.68Z"/><path class="d" d="M26.7361,22.0878a1,1,0,1,1,0-2H29.3c.0258,0,.0516.0009.0768.0028l.11,0a12.8642,12.8642,0,0,1,6.5523,2.0566c2.4664,1.6432,4.6128,4.48,4.7117,9.2786.0034.1644.0043.3353.0026.5105h.0039v.9669a1,1,0,1,1-2,0v-.9669h.004v-.0079c.0014-.1534.0006-.3087-.0026-.4635-.0822-3.9926-1.8224-6.3224-3.8211-7.6538a10.7328,10.7328,0,0,0-5.4666-1.7283l-.0762.0006c-.0309.0028-.0627.0042-.0944.0042ZM50.41,33.3717V30.0353a18.58,18.58,0,0,0-5.5242-12.6779A18.8986,18.8986,0,0,0,32.3092,11.414l-.0351-.0006V11.41H26.47a1,1,0,1,0,0,2h5.8042v-.0025a16.9066,16.9066,0,0,1,11.1818,5.3405A16.5753,16.5753,0,0,1,48.41,30.0353v3.3364a1,1,0,1,0,2,0Z"/></svg>