<svg xmlns="http://www.w3.org/2000/svg" viewBox="0 0 16.1671 70.0429"><defs><style>.a{fill:#d1d3d4;}.a,.b,.c{fill-rule:evenodd;}.b{fill:#86d2da;}.c{fill:#231f20;}</style></defs><path class="a" d="M7.5637,60.5248H11.95V57.2972c0-1.5451.1321-9.46.3456-10.9992,1.004-7.2207,3.8718-7.9277,3.8718-13.94V6.0021C16.1671,3.2507,13.2831,1,9.7568,1h0c-3.526,0-6.41,2.25-6.41,5.0021V32.3583c0,5.9845,2.838,6.6977,3.8565,13.881.2231,1.5743.3606,9.4768.3606,11.0579Z"/><path class="b" d="M11.95,63.7344v3.598a2.0022,2.0022,0,0,1-2.1923,1.71H9.7565a2.0023,2.0023,0,0,1-2.1926-1.71v-3.598Z"/><path class="b" d="M9.7571,12.992h0a2.1587,2.1587,0,0,1,2.1521,2.1524V30.2507a2.1585,2.1585,0,0,1-2.1521,2.1524h0A2.1584,2.1584,0,0,1,7.605,30.2507V15.1444A2.1586,2.1586,0,0,1,9.7571,12.992Z"/><path class="c" d="M6.2172,60.5248a1,1,0,0,1-2,0V57.2972c0-1.0023-.0505-4.367-.1395-7.0971-.0561-1.73-.1275-3.2448-.21-3.8242A22.0123,22.0123,0,0,0,1.7575,39.522,14.911,14.911,0,0,1,0,32.358V6.0018A5.4974,5.4974,0,0,1,2.2694,1.684,8.3939,8.3939,0,0,1,7.41,0h.0006a8.3936,8.3936,0,0,1,5.14,1.684,5.4979,5.4979,0,0,1,2.27,4.3178V32.358a14.91,14.91,0,0,1-1.7645,7.1765,21.8653,21.8653,0,0,0-2.1189,6.9c-.078.5624-.1463,2.063-.2,3.7822-.0856,2.7227-.134,6.0974-.134,7.08v3.2276a1,1,0,0,1-2,0V57.2972c0-.9164.0516-4.2587.142-7.1424.0562-1.7929.129-3.3707.2152-3.9932a23.5826,23.5826,0,0,1,2.2833-7.4633,13.24,13.24,0,0,0,1.5769-6.34V6.0018a3.5421,3.5421,0,0,0-1.4964-2.7474A6.3851,6.3851,0,0,0,7.4106,2H7.41A6.3854,6.3854,0,0,0,3.4962,3.2544,3.5408,3.5408,0,0,0,2,6.0018V32.358a13.2369,13.2369,0,0,0,1.57,6.3278A23.7544,23.7544,0,0,1,5.845,46.1027c.09.6369.1661,2.2294.2248,4.0351.0938,2.8854.1474,6.2215.1474,7.1594Z"/><path class="c" d="M10.6033,63.7344v3.598a2.5252,2.5252,0,0,1-1.0307,1.9934,3.5321,3.5321,0,0,1-2.162.7171H7.41a3.5319,3.5319,0,0,1-2.162-.7171,2.5249,2.5249,0,0,1-1.0307-1.9934v-3.598a1,1,0,0,1,1-1H9.6032a1,1,0,0,1,1,1Zm-2,3.598V64.7345H6.2169v2.5979a.5753.5753,0,0,0,.2574.423,1.5262,1.5262,0,0,0,.9352.2874h.0011a1.527,1.527,0,0,0,.9351-.2874A.5753.5753,0,0,0,8.6031,67.3324Z"/><path class="c" d="M7.41,11.9919a3.1438,3.1438,0,0,1,2.2269.9253c.021.0209.0408.0431.0595.0652a3.1387,3.1387,0,0,1,.8657,2.162V30.2507a3.1492,3.1492,0,0,1-5.379,2.2272c-.021-.0209-.0408-.0431-.0595-.0652a3.1387,3.1387,0,0,1-.8657-2.162V15.1444a3.1437,3.1437,0,0,1,.9252-2.2269c.0216-.0216.044-.0414.0666-.0607a3.1394,3.1394,0,0,1,2.16-.8649Zm.813,2.3392a1.1487,1.1487,0,0,0-1.5891-.0388l-.0369.0391a1.1491,1.1491,0,0,0-.339.813V30.2507a1.1525,1.1525,0,0,0,.3028.779l.0362.0343a1.152,1.152,0,0,0,1.965-.8133V15.1444a1.1537,1.1537,0,0,0-.3013-.7776Z"/><path class="c" d="M7.41,5.32A2.3274,2.3274,0,1,1,5.0828,7.647,2.3273,2.3273,0,0,1,7.41,5.32Z"/></svg>