<svg xmlns="http://www.w3.org/2000/svg" viewBox="0 0 73.4757 55.5829"><defs><style>.a{fill:#d1d3d4;}.b,.c{fill:#86d2da;}.c,.d,.e{fill-rule:evenodd;}.d{fill:#e75864;}.e{fill:#231f20;}</style></defs><circle class="a" cx="6.0596" cy="51.7419" r="2.8409"/><circle class="a" cx="70.6348" cy="51.7419" r="2.8409"/><path class="b" d="M18.4483,10.1337h4.07a1.1557,1.1557,0,0,1,1.1557,1.1557V26.4365a1.1558,1.1558,0,0,1-1.1558,1.1558h-4.07a1.1558,1.1558,0,0,1-1.1558-1.1558V11.2895a1.1558,1.1558,0,0,1,1.1558-1.1558Z" transform="translate(-3.6516 32.7514) rotate(-72.5607)"/><polygon class="c" points="10.436 29.91 39.079 38.707 66.258 38.707 66.258 31.929 39.031 31.929 10.436 22.918 10.436 29.91"/><polygon class="d" points="40.215 1 46.853 1 46.853 6.531 52.385 6.531 52.385 13.169 46.853 13.169 46.853 18.701 40.215 18.701 40.215 13.169 34.684 13.169 34.684 6.531 40.215 6.531 40.215 1"/><path class="e" d="M26.9413,23.7005l1.2144-3.8659a2.1409,2.1409,0,0,0-.1-1.5372,1.02,1.02,0,0,0-.0456-.101,2.1522,2.1522,0,0,0-1.2668-1.061L12.3007,12.5989l-.0091-.0032a2.2213,2.2213,0,0,0-2.7108,1.4517l-1.2075,3.844A2.163,2.163,0,0,0,9.786,20.5906l14.4423,4.5366.0091.0031a2.1951,2.1951,0,0,0,2.7039-1.43Zm-.792-4.6585a.1523.1523,0,0,1,.087.0763l.0145.0263a.1646.1646,0,0,1-.0017.0964l-1.22,3.8826,0,.0006a.1532.1532,0,0,1-.076.09.1621.1621,0,0,1-.1222.0091l0,0L10.38,18.684a.1541.1541,0,0,1-.091-.0763.1634.1634,0,0,1-.0088-.1227l1.22-3.8826,0-.0006a.1533.1533,0,0,1,.0757-.09.1615.1615,0,0,1,.1224-.0091l.0006,0Z"/><path class="e" d="M2.8409,14.4009a1,1,0,1,1,2,0V48.839a1,1,0,0,1-2,0Z"/><path class="e" d="M3.8409,47.901a3.8264,3.8264,0,0,1,2.7122,1.125l.0037.0037a3.8316,3.8316,0,0,1,0,5.4244l-.0037.0037a3.8315,3.8315,0,0,1-5.4243,0l-.0037-.0037a3.8316,3.8316,0,0,1,0-5.4244l.0037-.0037a3.8272,3.8272,0,0,1,2.7121-1.125ZM5.1466,50.44l-.0037-.0037a1.8512,1.8512,0,0,0-2.6039,0l-.0037.0037a1.8512,1.8512,0,0,0,0,2.6039l.0037.0037a1.8514,1.8514,0,0,0,2.6039,0l.0037-.0037a1.8512,1.8512,0,0,0,0-2.6039Z"/><path class="e" d="M67.4164,28.5245a1,1,0,1,1,2,0V48.839a1,1,0,0,1-2,0Z"/><path class="e" d="M68.4164,47.901a3.8264,3.8264,0,0,1,2.7122,1.125l.0037.0037a3.8316,3.8316,0,0,1,0,5.4244l-.0037.0037a3.8316,3.8316,0,0,1-5.4244,0l-.0036-.0037a3.8316,3.8316,0,0,1,0-5.4244l.0036-.0037a3.8265,3.8265,0,0,1,2.7122-1.125Zm1.3057,2.539-.0037-.0037a1.8512,1.8512,0,0,0-2.6039,0l-.0037.0037a1.8512,1.8512,0,0,0,0,2.6039l.0037.0037a1.8514,1.8514,0,0,0,2.6039,0l.0037-.0037a1.8512,1.8512,0,0,0,0-2.6039Z"/><path class="e" d="M7.4358,43.8531a1,1,0,0,1,0-2H64.6313a1,1,0,1,1,0,2Z"/><path class="e" d="M25.4015,37.7065a1,1,0,1,1,0,2H8.2174a1,1,0,0,1-1-1V33.2989a1,1,0,1,1,2,0v4.4076Z"/><path class="e" d="M9.2174,29.1736l27.7838,8.5329H63.0391V32.9287H36.8121a1.0013,1.0013,0,0,1-.3569-.0658L9.2174,24.28v4.894ZM36.5672,39.66,7.9979,30.8857a1.0006,1.0006,0,0,1-.7806-.9759V22.9175h.0014a.9992.9992,0,0,1,1.2954-.9532L36.96,30.9285H64.0392a1,1,0,0,1,1,1v6.7779a1,1,0,0,1-1,1H36.86V39.704A.9924.9924,0,0,1,36.5672,39.66Z"/><path class="e" d="M37.9967,0h6.6376a1,1,0,0,1,1,1V5.5312h4.5317a1,1,0,0,1,1,1v6.6379a1,1,0,0,1-1,1H45.6344v4.5314a1,1,0,0,1-1,1H37.9967a1,1,0,0,1-1-1V14.1693H32.4655a1,1,0,0,1-1-1V6.5313a1,1,0,0,1,1-1h4.5312V1a1,1,0,0,1,1-1Zm5.6376,2H38.9968V6.5313a1,1,0,0,1-1,1H33.4655v4.6377h4.5312a1,1,0,0,1,1,1v4.5315h4.6375V13.1692a1,1,0,0,1,1-1h4.5318V7.5314H44.6343a1,1,0,0,1-1-1Z"/></svg>