<svg xmlns="http://www.w3.org/2000/svg" viewBox="0 0 63.9126 42.9519"><defs><style>.a{fill:#86d2da;}.a,.b,.c{fill-rule:evenodd;}.b{fill:#231f20;}.c{fill:#fff;}</style></defs><path class="a" d="M7.1213,26.6927,8.1968,22.42a6.6036,6.6036,0,0,0,7.6275-9.667H26.92a4.9516,4.9516,0,0,0,9.9031,0H57.2209a4.1372,4.1372,0,0,1,3.7173,2.9736l2.6581,10.56a10.815,10.815,0,0,1,.3157,3.33v9.4572a2.8879,2.8879,0,0,1-2.8788,2.8786H9.7865a2.8876,2.8876,0,0,1-2.8786-2.8786V29.4806A9.6592,9.6592,0,0,1,7.1213,26.6927Z"/><path class="b" d="M17.0281,17.8982a1,1,0,0,1,0-2h5.8281a1,1,0,0,1,0,2Zm18.82,0h15.688a2.0011,2.0011,0,0,1,1.0727.2679.9022.9022,0,0,1,.4195.5227l1.343,5.5281a.9323.9323,0,0,1,.0026.6781c-.1375.1786-.5287.2976-1.3363.2976H12.7013a2.9889,2.9889,0,0,1-1.0842-.157.54.54,0,0,1-.292-.2118.9975.9975,0,0,0-1.7734.9139,2.4577,2.4577,0,0,0,1.3233,1.1495,4.8871,4.8871,0,0,0,1.8263.3055H53.038a3.4328,3.4328,0,0,0,2.9146-1.0788,2.687,2.687,0,0,0,.3569-2.3658L54.9665,18.22a2.8837,2.8837,0,0,0-1.2949-1.7416,3.97,3.97,0,0,0-2.1351-.58H35.8485a1,1,0,1,0,0,2Z"/><path class="b" d="M57.4128,29.98a1,1,0,0,1,0,2H8.3226a1,1,0,0,1,0-2Z"/><path class="b" d="M16.3674,13.7531a1,1,0,1,1,0-2h5.1857a1,1,0,0,1,0,2ZM3.6123,26.4506a14.377,14.377,0,0,0-.2449,3.03v9.5927a3.8643,3.8643,0,0,0,1.08,2.6759q.0276.0327.0587.0638a3.8682,3.8682,0,0,0,2.74,1.1389H58.493a3.8887,3.8887,0,0,0,3.879-3.8786V29.6161h-.004l0-.3028a10.7529,10.7529,0,0,0-.3433-3.2692l-2.658-10.56a5.0456,5.0456,0,0,0-1.7606-2.6294A4.7836,4.7836,0,0,0,54.68,11.753H37.1289a1,1,0,1,0,0,2H54.68a2.7808,2.7808,0,0,1,1.6838.6565,3.02,3.02,0,0,1,1.065,1.5591l2.658,10.56a9.188,9.188,0,0,1,.2889,2.785l0,.3028-.004,9.4572a1.8871,1.8871,0,0,1-1.8788,1.8785H7.2463a1.8736,1.8736,0,0,1-1.326-.5527l-.0428-.04a1.87,1.87,0,0,1-.51-1.2855V29.4806A9.9791,9.9791,0,0,1,5.55,26.9348l.4045-1.6073a.9987.9987,0,0,0-1.9378-.4841Z"/><path class="c" d="M11.8243,11.0378a6.6014,6.6014,0,1,1-9.2977.8444A6.6017,6.6017,0,0,1,11.8243,11.0378Z"/><path class="b" d="M12.4652,10.2759l.0652.0552.0006,0,0,0,.0043.0046a7.5973,7.5973,0,1,1-10.7745.91l.004-.0046.0553-.0651L1.82,11.1753l0,0,.0045-.0043a7.5957,7.5957,0,0,1,10.6362-.8988l.0045.004Zm.7149,5.3257a5.5882,5.5882,0,0,0-1.93-3.7454,1.0562,1.0562,0,0,1-.1267-.1055,5.6063,5.6063,0,0,0-7.778.7056,1.01,1.01,0,0,1-.1055.1267,5.6058,5.6058,0,1,0,9.94,3.0186Z"/><path class="c" d="M20.3682,1.8938a3.8723,3.8723,0,1,1-5.4539.4955A3.8729,3.8729,0,0,1,20.3682,1.8938Z"/><path class="b" d="M21.0049,1.1282A4.8676,4.8676,0,1,1,17.4488.02a4.8558,4.8558,0,0,1,3.5561,1.1081Zm-.2518,3.48A2.8745,2.8745,0,1,0,20.098,6.711,2.8655,2.8655,0,0,0,20.7531,4.6077Z"/><path class="c" d="M32.5016,8.9314a4.9518,4.9518,0,1,1-6.9744.6335A4.9516,4.9516,0,0,1,32.5016,8.9314Z"/><path class="b" d="M33.2086,8.2244l0,0,.0062.0065a5.946,5.946,0,0,1,.686,8.3106l-.004.0046-.0553.0652.0006.0005,0,0-.0065.0063a5.9478,5.9478,0,1,1-.6973-8.453l.0045.004.0652.0553.0006-.0006Zm-1.283,1.5242a.9856.9856,0,0,1-.123-.1023,3.9554,3.9554,0,1,0,.5156,5.6829,1.0027,1.0027,0,0,1,.1023-.1231,3.9569,3.9569,0,0,0-.4949-5.4575Z"/></svg>