<svg xmlns="http://www.w3.org/2000/svg" viewBox="0 0 59.2676 70.3511"><defs><style>.a{fill:#86d2da;}.a,.c,.d{fill-rule:evenodd;}.b,.c{fill:#d1d3d4;}.d{fill:#231f20;}</style></defs><path class="a" d="M13.5516,1A3.5114,3.5114,0,1,1,10.04,4.5117,3.5115,3.5115,0,0,1,13.5516,1Z"/><path class="a" d="M32.055,1a3.5114,3.5114,0,1,1-3.5115,3.5116A3.5115,3.5115,0,0,1,32.055,1Z"/><path class="b" d="M20.5215,36.978h4.5637a2.9591,2.9591,0,0,1,2.9591,2.9591v.0005a2.9588,2.9588,0,0,1-2.9588,2.9588H20.5212a2.9588,2.9588,0,0,1-2.9588-2.9588v0A2.9591,2.9591,0,0,1,20.5215,36.978Z"/><path class="c" d="M50.6206,22.8289a8.6469,8.6469,0,1,0,8.647,8.647A8.6469,8.6469,0,0,0,50.6206,22.8289Z"/><path class="a" d="M50.6208,27.07a4.4059,4.4059,0,1,0,4.4056,4.4059A4.4059,4.4059,0,0,0,50.6208,27.07Z"/><path class="d" d="M32.9273,5.63a.9983.9983,0,1,1,.3753-1.961A8.6109,8.6109,0,0,1,35.987,4.682a9.6544,9.6544,0,0,1,3.7791,4.0915,8.8266,8.8266,0,0,1,.7937,5.544,8.186,8.186,0,0,1-.9637,2.5626L28.3334,36.2767a.9978.9978,0,1,1-1.7268-1L37.8692,15.88a6.1915,6.1915,0,0,0,.73-1.9378,6.8409,6.8409,0,0,0-.6219-4.2933,7.6422,7.6422,0,0,0-2.99-3.24,6.6084,6.6084,0,0,0-2.06-.7793Zm-18.82,29.657a.9977.9977,0,1,1-1.7268,1L1.1129,16.88a8.1856,8.1856,0,0,1-.9635-2.562A8.8266,8.8266,0,0,1,.9425,8.775L.9394,8.7733A9.6568,9.6568,0,0,1,4.7228,4.6817,8.5985,8.5985,0,0,1,7.4061,3.6686.9983.9983,0,1,1,7.7814,5.63a6.6016,6.6016,0,0,0-2.0585.779,7.6359,7.6359,0,0,0-2.9863,3.24l-.0031-.0017-.0009.0017A6.84,6.84,0,0,0,2.11,13.9428,6.1905,6.1905,0,0,0,2.84,15.88Z"/><path class="d" d="M11.1028,0a4.4975,4.4975,0,0,1,3.1878,1.3235l.002-.002a4.511,4.511,0,0,1,0,6.38c-.02.02-.04.0385-.0612.0564a4.5062,4.5062,0,0,1-6.3187-.0564c-.02-.02-.0386-.04-.0565-.0612A4.51,4.51,0,0,1,11.1028,0Zm1.7759,2.7318A2.5143,2.5143,0,0,0,9.2841,6.2476l.0425.04a2.5176,2.5176,0,0,0,3.5093.0456l.0428-.0456a2.5126,2.5126,0,0,0,0-3.5521l.002-.002Z"/><path class="d" d="M29.6062,0a4.4985,4.4985,0,0,1,3.19,1.3215q.03.03.0564.0613a4.5017,4.5017,0,0,1-.0564,6.315l-.002.0017.002.002a4.5112,4.5112,0,0,1-6.38,0c-.02-.02-.0386-.04-.0564-.0612A4.51,4.51,0,0,1,29.6062,0Zm1.7762,2.7355a2.5131,2.5131,0,0,0-3.5949,3.5121l.0425.04a2.513,2.513,0,0,0,3.5524,0l.0017.0017a2.5213,2.5213,0,0,0,.0408-3.5139Z"/><path class="d" d="M18.0726,35.9779h4.5638a3.968,3.968,0,0,1,3.9591,3.9592v.0005a3.9482,3.9482,0,0,1-1.1642,2.7947l.002.002a3.9475,3.9475,0,0,1-2.7969,1.1622H18.0726a3.9476,3.9476,0,0,1-2.797-1.1622c-.0207-.0207-.04-.0417-.0584-.0638a3.9451,3.9451,0,0,1-1.1038-2.7329v-.0005a3.968,3.968,0,0,1,3.9592-3.9592Zm4.5638,2H18.0726a1.9666,1.9666,0,0,0-1.959,1.9591v.0005A1.95,1.95,0,0,0,16.647,41.28l.0426.04a1.9535,1.9535,0,0,0,1.383.576h4.5638a1.9537,1.9537,0,0,0,1.383-.576l.002.002.0017-.002a1.9506,1.9506,0,0,0,.5723-1.3828v-.0005a1.9666,1.9666,0,0,0-1.959-1.9591Z"/><path class="d" d="M19.4162,46.1277a1,1,0,1,1,2,0v9.3276A12.936,12.936,0,0,0,34.3117,68.351h.0006A12.9365,12.9365,0,0,0,47.2091,55.4553V43.6615a1,1,0,0,1,2,0V55.4553A14.9379,14.9379,0,0,1,34.3123,70.3511h-.0006A14.9374,14.9374,0,0,1,19.4162,55.4553Z"/><path class="d" d="M48.1717,23.8289a7.6466,7.6466,0,1,0,5.4074,2.24,7.623,7.623,0,0,0-5.4074-2.24Zm-6.821.8257a9.6461,9.6461,0,1,1-2.8259,6.8213A9.6165,9.6165,0,0,1,41.3507,24.6546Z"/><path class="d" d="M48.1717,28.07A3.4059,3.4059,0,1,0,50.58,33.8879l.0037-.0036a3.4076,3.4076,0,0,0-2.412-5.8142Zm-3.8185-.4167a5.4028,5.4028,0,1,1,7.643,7.6385l-.0023.0026-.0019.0017-.0017.002a5.3958,5.3958,0,0,1-7.6371,0l-.0037-.0037a5.3966,5.3966,0,0,1,0-7.6377Z"/></svg>