<svg xmlns="http://www.w3.org/2000/svg" viewBox="0 0 61.2223 65.7125"><defs><style>.a,.c{fill:#86d2da;}.b{fill:#d1d3d4;}.b,.c,.d{fill-rule:evenodd;}.d{fill:#231f20;}</style></defs><path class="a" d="M58.2973,46.7651h1.7745a1.15,1.15,0,0,1,1.15,1.15v2.6652a1.15,1.15,0,0,1-1.15,1.15H58.2978A1.1508,1.1508,0,0,1,57.147,50.58V47.9154A1.15,1.15,0,0,1,58.2973,46.7651Z"/><path class="b" d="M6.5942,5.63H30.68A3.26,3.26,0,0,1,33.9307,8.88V40.3024a3.2288,3.2288,0,0,1-.22,1.1713c-1.19,3.9642-7.4858,6.9891-15.0741,6.9891-7.5915,0-13.8886-3.0274-15.0752-6.9942a3.2237,3.2237,0,0,1-.218-1.1662V8.88A3.26,3.26,0,0,1,6.5942,5.63Z"/><path class="c" d="M22.644,48.172v2.8a1.8422,1.8422,0,0,1-1.8377,1.8372H16.4678A1.8419,1.8419,0,0,1,14.63,50.972v-2.8c-5.7146-.847-10.0987-3.4611-11.069-6.7034a3.23,3.23,0,0,1-.2177-1.1665V21.5637h30.587V40.3021a3.232,3.232,0,0,1-.22,1.1719C32.7381,44.7137,28.3555,47.3255,22.644,48.172Z"/><path class="d" d="M4.2505,4.63H28.3362a4.2362,4.2362,0,0,1,2.9991,1.2478l.0036.0037A4.2356,4.2356,0,0,1,32.5868,8.88V40.3024a4.2314,4.2314,0,0,1-.0749.78,4.1853,4.1853,0,0,1-.1919.6891c-.6888,2.2771-2.7779,4.248-5.7336,5.6183a24.8694,24.8694,0,0,1-10.2932,2.0733A24.8675,24.8675,0,0,1,5.9969,47.3882C3.04,46.0165.9518,44.0441.265,41.7662a4.2381,4.2381,0,0,1-.1908-.6871l-.0076-.0459A4.2225,4.2225,0,0,1,0,40.3024V8.88A4.2356,4.2356,0,0,1,1.2478,5.881l.0037-.0037A4.2347,4.2347,0,0,1,4.2505,4.63Zm24.0857,2H4.2505A2.253,2.253,0,0,0,2,8.88V40.3024a2.3179,2.3179,0,0,0,.03.3841l.0051.0252a2.2855,2.2855,0,0,0,.0953.3507,1.0476,1.0476,0,0,1,.0445.121c.5125,1.7133,2.2124,3.2576,4.6582,4.3923a22.862,22.862,0,0,0,9.46,1.887,22.8654,22.8654,0,0,0,9.457-1.8856c2.4454-1.1338,4.1462-2.6767,4.66-4.3886l.0017.0006c.0074-.0252.0159-.05.0255-.0748a2.22,2.22,0,0,0,.1137-.3994,2.2542,2.2542,0,0,0,.0357-.4125V8.88a2.253,2.253,0,0,0-2.25-2.25Z"/><path class="d" d="M14.2931,3.2686a.9993.9993,0,1,1-1.8045-.8594A4.2478,4.2478,0,0,1,14.0468.6528c.02-.0127.04-.0244.0606-.0354a4.178,4.178,0,0,1,4.4283.0354l.0028.0017L18.54.6528a4.2492,4.2492,0,0,1,1.5582,1.7564.9994.9994,0,0,1-1.8046.8594,2.2452,2.2452,0,0,0-.824-.928l.0011-.0017A2.216,2.216,0,0,0,15.1622,2.31l-.0451.03A2.2452,2.2452,0,0,0,14.2931,3.2686Z"/><path class="d" d="M19.3025,51.0055a.9969.9969,0,0,1,1.9922.0782,2.8434,2.8434,0,0,1-2.8321,2.7255H14.1241a2.8434,2.8434,0,0,1-2.832-2.7255.9968.9968,0,1,1,1.9921-.0782.8409.8409,0,0,0,.84.8036h4.3385a.8409.8409,0,0,0,.84-.8036Z"/><path class="d" d="M58.2647,56.6416a1,1,0,1,1-2,0V51.8734a1,1,0,0,1,2,0v4.7682Zm0-10.04V27.0159a10.9674,10.9674,0,0,0-2.2989-6.8426,7.4227,7.4227,0,0,0-5.7691-2.9611h0a7.422,7.422,0,0,0-5.7688,2.9614,10.9673,10.9673,0,0,0-2.2994,6.8423V51.7328A11.7269,11.7269,0,0,1,38.49,60.1809a12.7316,12.7316,0,0,1-17.1584.404,11.8289,11.8289,0,0,1-4.0221-7.7071.9969.9969,0,1,0-1.9842.1955,13.8247,13.8247,0,0,0,4.6939,9.0117,14.7079,14.7079,0,0,0,19.8535-.4663,13.7213,13.7213,0,0,0,4.2557-9.8859V27.0159a8.9567,8.9567,0,0,1,1.8539-5.5922,5.46,5.46,0,0,1,4.2142-2.2113h0a5.461,5.461,0,0,1,4.2146,2.211,8.9574,8.9574,0,0,1,1.8533,5.5925v19.586a1,1,0,0,0,2,0Z"/><path class="d" d="M56.3609,45.7651h1.774a2.1456,2.1456,0,0,1,1.5159.631l.0017.0019.002.0017.0037.0037a2.1455,2.1455,0,0,1,.6273,1.512v2.6654a2.1444,2.1444,0,0,1-.631,1.5157l-.002.0017-.0017.002-.0037.0037a2.1458,2.1458,0,0,1-1.5122.6273h-1.774a2.1544,2.1544,0,0,1-2.1509-2.15V47.9154a2.1544,2.1544,0,0,1,2.1509-2.15Zm1.774,2h-1.774a.153.153,0,0,0-.1508.15v2.6654a.153.153,0,0,0,.1508.15h1.774a.1488.1488,0,0,0,.1057-.0411l.0037-.0037a.1487.1487,0,0,0,.0411-.1055V47.9154a.1486.1486,0,0,0-.0411-.1054l-.0037-.0037A.1488.1488,0,0,0,58.1349,47.7652Z"/><path class="d" d="M31.0906,15.0792a1,1,0,1,1,0,2H23.8243a1,1,0,1,1,0-2Z"/><path class="d" d="M31.0906,20.5364a1,1,0,0,1,0,2h-4.606a1,1,0,0,1,0-2Z"/><path class="d" d="M31.0906,25.9934a1,1,0,1,1,0,2H23.8243a1,1,0,1,1,0-2Z"/><path class="d" d="M31.0906,31.4507a1,1,0,1,1,0,2h-4.606a1,1,0,0,1,0-2Z"/><path class="d" d="M31.0906,36.9076a1,1,0,1,1,0,2H23.8243a1,1,0,1,1,0-2Z"/></svg>