<svg xmlns="http://www.w3.org/2000/svg" viewBox="0 0 34.5527 81.2274"><defs><style>.a{fill:#fff;}.a,.b,.c,.d{fill-rule:evenodd;}.b{fill:#86d2da;}.c{fill:#e75864;}.d{fill:#231f20;}</style></defs><path class="a" d="M8.1973,14.4967c3.4166-1.2251,6.8275-2.1135,10.5006,0,4.0014,2.1265,7.3449,1.2569,10.753,0L23.0758,31.915h8.5013a2.1339,2.1339,0,0,1,2.1275,2.1277V78.1a2.1336,2.1336,0,0,1-2.1275,2.1274H6.1362A2.1338,2.1338,0,0,1,4.0085,78.1V34.0427A2.1341,2.1341,0,0,1,6.1362,31.915h8.4362Z"/><path class="b" d="M21.2865,3.07A15.4332,15.4332,0,0,1,34.5527,18.1744,15.26,15.26,0,0,1,25.731,31.915H11.9166A15.26,15.26,0,0,1,3.0949,18.1744,15.4332,15.4332,0,0,1,16.3611,3.07a2.5,2.5,0,0,1,4.9254,0ZM8.197,14.4967,14.5721,31.915h8.5034l6.3751-17.4183c-3.4081,1.2569-6.7516,2.1265-10.7529,0C15.0245,12.3832,11.6136,13.2716,8.197,14.4967Z"/><path class="b" d="M6.1359,31.915h25.441a2.1341,2.1341,0,0,1,2.1277,2.1277V38.268H4.0085V34.0427A2.1339,2.1339,0,0,1,6.1359,31.915Z"/><path class="b" d="M4.0085,43.7324H33.7046V74.2079H4.0085V43.7324Zm14.8479,4.2307A11.0069,11.0069,0,1,0,29.8633,58.97,11.007,11.007,0,0,0,18.8564,47.9631Z"/><polygon class="c" points="16.496 52.675 21.217 52.675 21.217 56.609 25.151 56.609 25.151 61.33 21.217 61.33 21.217 65.265 16.496 65.265 16.496 61.33 12.562 61.33 12.562 56.609 16.496 56.609 16.496 52.675"/><path class="d" d="M4.0085,30.915H29.45a3.1169,3.1169,0,0,1,2.2056.9181l.0017.002.002.0017.0076.0079a3.1182,3.1182,0,0,1,.9105,2.198V78.1a3.1165,3.1165,0,0,1-.9178,2.2059l-.0037.0037a3.1164,3.1164,0,0,1-2.2059.9179H4.0085a3.1178,3.1178,0,0,1-2.2059-.9182l-.0017-.002-.002-.0017-.0076-.0079A3.1166,3.1166,0,0,1,.8808,78.1V34.0427a3.1164,3.1164,0,0,1,.9181-2.2059l.0037-.0037a3.1164,3.1164,0,0,1,2.2059-.9181Zm25.441,2H4.0085a1.1306,1.1306,0,0,0-.7957.3282l-.0037.0037a1.1306,1.1306,0,0,0-.3282.7957V78.1a1.1218,1.1218,0,0,0,.3282.7954l.0037.0037a1.1217,1.1217,0,0,0,.7957.3282H29.45a1.13,1.13,0,0,0,.7956-.3279l.0037-.0037a1.13,1.13,0,0,0,.328-.7957V34.0427a1.1221,1.1221,0,0,0-.3282-.7957l-.0037-.0037A1.1215,1.1215,0,0,0,29.45,32.9151Z"/><path class="d" d="M12.4127,28.8369a.9974.9974,0,1,1-1.8754.68l-5.3728-14.68a.9977.9977,0,0,1,.5978-1.2776l.05-.0164a19.8321,19.8321,0,0,1,5.3816-1.2941A10.1664,10.1664,0,0,1,17.07,13.6168l.0017-.0031a9.28,9.28,0,0,0,5.0715,1.1557,17.34,17.34,0,0,0,4.8688-1.21.9986.9986,0,0,1,1.2639,1.3258L22.9207,29.5166a.9974.9974,0,1,1-1.8754-.68L25.7035,16.11a15.302,15.302,0,0,1-3.443.652A11.2075,11.2075,0,0,1,16.134,15.38l.002-.0037-.0292-.0159a8.2464,8.2464,0,0,0-4.7877-1.1194,15.7639,15.7639,0,0,0-3.932.8646Z"/><path class="d" d="M19.9812,19.86a.997.997,0,1,1,1.8986.61l-2.86,8.8668a.9971.9971,0,0,1-1.8987-.6095Z"/><path class="d" d="M11.395,20.4693a.9971.9971,0,0,1,1.8987-.61l2.8607,8.8668a.997.997,0,1,1-1.8986.6095Z"/><path class="d" d="M4.68,44.7324a1,1,0,0,1,0-2H28.7777a1,1,0,0,1,0,2ZM28.7777,73.2079a1,1,0,0,1,0,2H4.68a1,1,0,0,1,0-2Z"/><path class="d" d="M19.984,2.1932a16.8212,16.8212,0,0,1,9.4621,5.4014,15.9444,15.9444,0,0,1,1.476,19.2028,16.6576,16.6576,0,0,1-6.8565,6.02.9945.9945,0,0,1-.43.0972v.0006H9.8221a.9957.9957,0,0,1-.4683-.1162,16.6481,16.6481,0,0,1-6.8179-6.0015A15.944,15.944,0,0,1,4.0119,7.5946,16.8212,16.8212,0,0,1,13.474,2.1932,3.4355,3.4355,0,0,1,14.4613.8269a3.5229,3.5229,0,0,1,4.5354,0,3.4355,3.4355,0,0,1,.9873,1.3663Zm7.962,6.7139a14.82,14.82,0,0,0-8.9028-4.8484v0a1,1,0,0,1-.84-.8436,1.3991,1.3991,0,0,0-.4879-.8646,1.5651,1.5651,0,0,0-1.9729,0,1.4013,1.4013,0,0,0-.4836.838,1,1,0,0,1-.8441.87A14.82,14.82,0,0,0,5.512,8.9071a13.9708,13.9708,0,0,0-1.2963,16.812A14.6475,14.6475,0,0,0,10.05,30.915H23.4077a14.65,14.65,0,0,0,5.8346-5.1959A13.9708,13.9708,0,0,0,27.946,8.9071Z"/><path class="d" d="M14.3683,51.6751h4.7211a1,1,0,0,1,1,1v2.9342h2.9344a1,1,0,0,1,1,1V61.33a1,1,0,0,1-1,1H20.09v2.9344a1,1,0,0,1-1,1H14.3683a1,1,0,0,1-1-1V62.3305H10.4341a1,1,0,0,1-1-1V56.6093a1,1,0,0,1,1-1h2.9341V52.6751a1,1,0,0,1,1-1Zm3.721,2H15.3684v2.9341a1,1,0,0,1-1,1H11.4342V60.33h2.9341a1,1,0,0,1,1,1v2.9345h2.7209V61.33a1,1,0,0,1,1-1h2.9344v-2.721H19.0894a1,1,0,0,1-1-1Z"/><path class="d" d="M16.729,46.963a12.0076,12.0076,0,1,1-8.49,3.517,11.97,11.97,0,0,1,8.49-3.517Zm7.0761,4.9309A10.0076,10.0076,0,1,0,26.7359,58.97,9.9756,9.9756,0,0,0,23.8051,51.8939Z"/><path class="d" d="M4.68,39.2658a1,1,0,0,1,0-2H28.7777a1,1,0,0,1,0,2Z"/></svg>