<svg xmlns="http://www.w3.org/2000/svg" viewBox="0 0 52.4579 53.9071"><defs><style>.a{fill:#fff;}.a,.b,.c{fill-rule:evenodd;}.b{fill:#86d2da;}.c{fill:#231f20;}</style></defs><path class="a" d="M13.7772,10.6325c-2.1883,0-3.9623,2.8154-3.9623,6.2884s1.774,6.2884,3.9623,6.2884S17.74,20.3939,17.74,16.9209,15.9658,10.6325,13.7772,10.6325Z"/><path class="b" d="M23.78,52.907l28.6781-.0006V16.0073C52.4579,10.1469,48.9719,1,41.99,1H13.934l.009.0133c-.055-.0014-.11-.0031-.1649-.0031C8.2414,1.01,3.753,8.1335,3.753,16.9209S8.2414,32.8315,13.7781,32.8315c.0612,0,.1221-.0017.1828-.0034v.0005H23.78V52.907ZM13.7781,10.6325c2.1886,0,3.9625,2.8154,3.9625,6.2884s-1.7739,6.2884-3.9625,6.2884-3.9623-2.8154-3.9623-6.2884S11.59,10.6325,13.7781,10.6325Z"/><path class="c" d="M35.2854,0a1,1,0,0,1,0,2H16.2433a12.66,12.66,0,0,1,2.4308,2.7085,21.4939,21.4939,0,0,1,3.3327,10.7427l.0011.0332.015.3095.0009.0332c.0062.1584.0124.3353.0167.5318.0065.3.01.4872.01.5618s-.0034.2622-.01.5618c-.0043.1911-.01.3631-.0159.5182h.0023V52.907a1,1,0,1,1-2,0V18.0009H20.03l.0008-.0391c.0082-.1919.0145-.3663.0176-.5182.0011-.0595.002-.2342.002-.5227s-.0009-.4632-.002-.5227c-.0031-.144-.0085-.3082-.0164-.4879l-.0012-.0226-.0147-.3053-.0014-.0216a19.4868,19.4868,0,0,0-2.9892-9.7347c-1.5732-2.3216-3.6314-3.76-5.8592-3.8166V2.0087A1.0044,1.0044,0,0,1,11.181,0Zm-10.49,53.9031,24.9094-.0006a.9964.9964,0,0,0,.9961-.9961h.004V16.0073A21.2235,21.2235,0,0,0,47.2127,4.644C45.3206,1.9316,42.6668,0,39.2371,0a1,1,0,0,0,0,2c2.6816,0,4.8008,1.5737,6.3428,3.7845a19.09,19.09,0,0,1,3.125,10.2226V51.91l-23.9094.0006a.9961.9961,0,1,0,0,1.9922Z"/><path class="c" d="M11.025,2.01c-2.4026,0-4.6136,1.6018-6.245,4.191A20.3928,20.3928,0,0,0,2,16.9209,20.3936,20.3936,0,0,0,4.78,27.64c1.6314,2.5891,3.8424,4.191,6.245,4.191S15.6384,30.23,17.27,27.64a20.389,20.389,0,0,0,2.78-10.7192A20.3887,20.3887,0,0,0,17.27,6.2017C15.6384,3.6122,13.4277,2.01,11.025,2.01ZM3.0923,5.139C5.0887,1.97,7.8913.01,11.025.01s5.9364,1.96,7.9328,5.129A22.3986,22.3986,0,0,1,22.05,16.9209a22.3979,22.3979,0,0,1-3.0926,11.7816c-1.9964,3.1692-4.7988,5.129-7.9328,5.129s-5.9363-1.96-7.9327-5.1287A22.4016,22.4016,0,0,1,0,16.9209,22.4016,22.4016,0,0,1,3.0923,5.139Z"/><path class="c" d="M45.6647,22.4963a1,1,0,0,1,0,2H25.0166a1,1,0,0,1,0-2Z"/><path class="c" d="M11.025,11.6326a2.4945,2.4945,0,0,0-1.9578,1.3728,7.4551,7.4551,0,0,0-1.0044,3.9155,7.4556,7.4556,0,0,0,1.0044,3.9155,2.4947,2.4947,0,0,0,1.9578,1.3728,2.4947,2.4947,0,0,0,1.9579-1.3728,7.4556,7.4556,0,0,0,1.0044-3.9155,7.4551,7.4551,0,0,0-1.0044-3.9155,2.4945,2.4945,0,0,0-1.9579-1.3728Zm-3.6456.31A4.3977,4.3977,0,0,1,11.025,9.6324a4.3977,4.3977,0,0,1,3.6457,2.3106,9.4671,9.4671,0,0,1,1.3167,4.9779,9.4671,9.4671,0,0,1-1.3167,4.9779,4.3978,4.3978,0,0,1-3.6457,2.31,4.3978,4.3978,0,0,1-3.6456-2.31,9.4671,9.4671,0,0,1-1.3167-4.9779A9.4671,9.4671,0,0,1,7.3794,11.943Z"/></svg>