<svg xmlns="http://www.w3.org/2000/svg" viewBox="0 0 53.7282 60.3946"><defs><style>.a{fill:#fff;}.a,.b,.c{fill-rule:evenodd;}.b{fill:#86d2da;}.c{fill:#231f20;}</style></defs><path class="a" d="M18.1775,4.9532c2.9205,0,5.2886.9692,5.2886,2.1648S21.098,9.2831,18.1775,9.2831,12.8886,8.314,12.8886,7.118,15.2566,4.9532,18.1775,4.9532Z"/><path class="b" d="M18.1778,1c8.255,0,14.947,2.7391,14.947,6.118s-6.692,6.1183-14.947,6.1183S3.2307,10.4972,3.2307,7.118,9.9227,1,18.1778,1Zm0,3.9532c-2.9209,0-5.2889.9692-5.2889,2.1648s2.368,2.1651,5.2889,2.1651,5.2885-.9691,5.2885-2.1651-2.368-2.1648-5.2885-2.1648Zm14.928,47.5161V7.4267c-.3923,3.2355-6.9256,5.81-14.928,5.81-8.2245,0-14.8961-2.7187-14.946-6.08H3.23V52.9849l0,.3954c.0019,3.333,6.7787,6.0143,14.9471,6.0143,8.255,0,14.928-4.3881,14.928-6.1285v-.7968ZM19.1262,1.0125c7.8129.2,13.9986,2.857,13.9986,6.1055l-.019.3595V53.2661a.78.78,0,0,1-.011.12H53.7282V1.0125Z"/><path class="c" d="M15.9472,0A29.853,29.853,0,0,1,26.8915,1.87c3.0908,1.2648,5.0028,3.1144,5.0028,5.2477s-1.9122,3.983-5.0028,5.2481a29.853,29.853,0,0,1-10.9443,1.87,29.8509,29.8509,0,0,1-10.944-1.87C1.9126,11.101,0,9.2514,0,7.118S1.9126,3.1351,5.0032,1.87A29.8587,29.8587,0,0,1,15.9472,0ZM26.1414,3.7139A27.8746,27.8746,0,0,0,15.9472,2,27.8759,27.8759,0,0,0,5.7532,3.7136C3.4348,4.6627,2,5.8728,2,7.118s1.4344,2.4554,3.7528,3.4044a27.872,27.872,0,0,0,10.194,1.7139,27.8723,27.8723,0,0,0,10.1942-1.7139c2.3185-.949,3.7528-2.1591,3.7528-3.4044S28.46,4.6627,26.1414,3.7139Z"/><path class="c" d="M31.8756,52.4693v.7968c0,1.3391-2.4488,3.6428-6.2711,5.212a25.7574,25.7574,0,0,1-9.6573,1.9165A30.324,30.324,0,0,1,5.0125,58.5518C1.9287,57.3111.0051,55.4918.0043,53.38l0-.3954H0V7.156a1,1,0,0,1,1-1h.0014a1,1,0,0,1,1,1L2,7.2076v.0031c.0678,1.2141,1.5024,2.3922,3.7866,3.3214a27.9064,27.9064,0,0,0,10.1605,1.7042,28.303,28.303,0,0,0,9.938-1.6132c2.3456-.9128,3.85-2.0872,3.9982-3.3134a.999.999,0,0,1,1.9911.117h.0011V52.4693Zm-2,.7968V10.6769a12.4873,12.4873,0,0,1-3.2715,1.8057,30.2936,30.2936,0,0,1-10.6568,1.7538A29.9189,29.9189,0,0,1,5.0366,12.3837,12.1013,12.1013,0,0,1,2,10.6645v42.32H1.9962l0,.3954C1.997,54.59,3.44,55.7693,5.7546,56.7a28.321,28.321,0,0,0,10.1926,1.6943,23.7279,23.7279,0,0,0,8.8993-1.76c3.0654-1.2583,5.029-2.7065,5.029-3.3684ZM2,7.2076v0Z"/><path class="c" d="M15.9472,3.9534a11.2057,11.2057,0,0,1,4.1145.7124c1.3433.5491,2.1741,1.4108,2.1741,2.4522s-.8308,1.9029-2.1739,2.4526a11.21,11.21,0,0,1-4.1147.7123,11.21,11.21,0,0,1-4.1148-.7123C10.4893,9.0209,9.6585,8.16,9.6585,7.118s.8308-1.9031,2.1742-2.4522a11.2049,11.2049,0,0,1,4.1145-.7124Zm3.3644,2.556a9.2247,9.2247,0,0,0-3.3644-.5558,9.2249,9.2249,0,0,0-3.3645.5558c-.5709.2333-.9241.455-.9241.6086s.3535.3756.9238.6089a9.2255,9.2255,0,0,0,3.3648.5559,9.2253,9.2253,0,0,0,3.3647-.5559c.57-.2333.9238-.4552.9238-.6089S19.8825,6.7427,19.3116,6.5094Z"/><path class="c" d="M29.558,2.0126a1,1,0,1,1,0-2h21.94a1,1,0,0,1,1,1V53.3863a1,1,0,0,1-1,1H34.0206a1,1,0,1,1,0-2H50.4975V2.0126Z"/><path class="c" d="M14.9375,16.6578a1,1,0,1,1,2,0V56.12a1,1,0,1,1-2,0Z"/></svg>