<svg xmlns="http://www.w3.org/2000/svg" viewBox="0 0 71.9731 42.5628"><defs><style>.a{fill:#86d2da;}.a,.b,.c{fill-rule:evenodd;}.b{fill:#d1d3d4;}.c{fill:#231f20;}</style></defs><path class="a" d="M5.2039,17.9938H69.9472A2.0318,2.0318,0,0,1,71.9731,20.02V33.19a21.8668,21.8668,0,0,1-16.4608,8.3713c-5.267.1193-11.3661-1.9372-13.7027-7.0382-.6718-1.468-1.03-2.9208-1.5341-4.0144a2.8557,2.8557,0,0,0-5.3988.0173c-.5043,1.0913-.8666,2.5367-1.5353,3.9971-2.3366,5.101-8.4356,7.1575-13.7027,7.0382A21.8677,21.8677,0,0,1,3.1779,33.19V20.02A2.0319,2.0319,0,0,1,5.2039,17.9938Z"/><path class="b" d="M5.3413,14.7152h7.2292L24.6082,5.241c1.3969-1.0795,2.6-1.2045,3.2774.2908l.7693,2.0526c.74,1.6359,4.0133,1.1863,3.2723-.74l-1.34-3.4869C29.5943.7722,25.5609.3189,23.3187,1.96Z"/><path class="b" d="M5.2039,17.9938H69.9472A2.0322,2.0322,0,0,1,71.9731,20.02v1.5684H3.1779V20.02A2.0319,2.0319,0,0,1,5.2039,17.9938Z"/><path class="b" d="M30.6,32.7518c-.7282,1.2152.3331,2.7286,1.2087,4.1564a10.0946,10.0946,0,0,0,1.5327-2.3848c.6687-1.46,1.031-2.9058,1.5353-3.9971a2.8557,2.8557,0,0,1,5.3988-.0173c.504,1.0936.8623,2.5464,1.5341,4.0144A10.09,10.09,0,0,0,43.4225,37c.866-1.4216,1.9018-2.9546,1.1282-4.248-.9995-1.834-1.5324-3.6493-2.2816-5.0151-1.7626-3.2139-7.628-3.1745-9.3855.0216C32.1339,29.1212,31.5947,30.9274,30.6,32.7518Z"/><path class="b" d="M69.81,14.7152H62.5808L50.5435,5.241c-1.3972-1.0795-2.6-1.2045-3.2777.2908l-.7694,2.0526c-.74,1.6359-4.0133,1.1863-3.2723-.74l1.34-3.4869C45.557.7722,49.5905.3189,51.8327,1.96Z"/><path class="c" d="M3.026,16.9937H67.7693a3.0141,3.0141,0,0,1,2.1342.8881l.0037.0037a3.0151,3.0151,0,0,1,.8881,2.1342V33.19a.9963.9963,0,0,1-.2514.6627,22.562,22.562,0,0,1-7.6082,6.2414,22.4125,22.4125,0,0,1-9.5817,2.4633,19.1326,19.1326,0,0,1-8.9991-1.9508,12.0611,12.0611,0,0,1-5.6294-5.6693c-.3747-.819-.6536-1.6254-.9119-2.3729-.2058-.5953-.398-1.1509-.6222-1.6376A2.3187,2.3187,0,0,0,36.1,29.7454a1.6075,1.6075,0,0,0-1.3839.0017,2.355,2.355,0,0,0-1.1115,1.1973c-.22.4774-.4167,1.04-.6264,1.6427-.2557.7347-.5318,1.527-.9088,2.3505a12.0614,12.0614,0,0,1-5.6293,5.6693,19.1332,19.1332,0,0,1-8.9992,1.9508A22.84,22.84,0,0,1,.207,33.7958.9944.9944,0,0,1,.0023,33.19H0V20.02a3.0156,3.0156,0,0,1,.8881-2.1342l.0037-.0037a3.0151,3.0151,0,0,1,2.1342-.8881Zm64.7433,2H3.026a1.03,1.03,0,0,0-.724.2982l-.0036.0037A1.0294,1.0294,0,0,0,2,20.02v12.83a20.594,20.594,0,0,0,6.766,5.4638A20.3987,20.3987,0,0,0,17.48,40.5655a17.1265,17.1265,0,0,0,8.0535-1.732,10.0981,10.0981,0,0,0,4.7234-4.7242c.3334-.7279.5956-1.48.8385-2.1787.23-.66.4448-1.2773.6968-1.8224A4.3243,4.3243,0,0,1,33.88,27.9346a3.6406,3.6406,0,0,1,3.0563-.0017,4.283,4.283,0,0,1,2.0673,2.158c.246.5338.4615,1.1568.6925,1.8252.24.6959.5,1.4474.8416,2.1932a10.099,10.099,0,0,0,4.7234,4.7242,17.1265,17.1265,0,0,0,8.0535,1.732,20.4,20.4,0,0,0,8.7143-2.2524,20.6006,20.6006,0,0,0,6.766-5.4638V20.02a1.0294,1.0294,0,0,0-.2982-.724l-.0037-.0037A1.0293,1.0293,0,0,0,67.7693,18.9938Z"/><path class="c" d="M11.01,15.5a.9987.9987,0,0,1-1.2342-1.57L21.8129,4.4558c.0179-.0142.036-.0272.0544-.04a5.8952,5.8952,0,0,1,1.1214-.6888,2.9082,2.9082,0,0,1,1.6736-.2744,2.35,2.35,0,0,1,1.5225.9383,3.6565,3.6565,0,0,1,.4331.73.9883.9883,0,0,1,.0442.1177l.726,1.9363a.92.92,0,0,0,.8595.4153,1.2248,1.2248,0,0,0,.3985-.0643.5283.5283,0,0,0,.1959-.1052c.0266-.0264.0255-.0967-.0224-.2217L27.48,3.7128a2.1473,2.1473,0,0,0-.2749-.4986,3.1569,3.1569,0,0,0-1.9681-1.1265,4.885,4.885,0,0,0-2.65.2135,3.6847,3.6847,0,0,0-.8561.4632l-.0315.0221L3.7418,15.5279a.9975.9975,0,0,1-1.1566-1.6254L20.5438,1.16l.0071-.0054A5.7175,5.7175,0,0,1,21.8758.4416,6.8984,6.8984,0,0,1,25.62.1267a5.1332,5.1332,0,0,1,3.1949,1.9077,4.16,4.16,0,0,1,.525.9675l1.34,3.4869a2.0606,2.0606,0,0,1-.4306,2.3465,2.5016,2.5016,0,0,1-.9538.582,3.24,3.24,0,0,1-1.0551.1658,2.8778,2.8778,0,0,1-2.6728-1.5885l.0017-.0009-.0252-.0615-.7469-1.9928a1.6713,1.6713,0,0,0-.19-.3293.437.437,0,0,0-.2566-.1883,1.0343,1.0343,0,0,0-.5408.1259,3.9127,3.9127,0,0,0-.73.4524l-.0318.0261Z"/><path class="c" d="M66.5592,20.588a1,1,0,1,1,0,2H4.2358a1,1,0,0,1,0-2Z"/><path class="c" d="M29.2777,33.2634c-.2557.4264.0167,1.11.4348,1.8556a8.9428,8.9428,0,0,0,.5448-1.01c.3334-.7279.5956-1.48.8385-2.1787.23-.66.4448-1.2773.6968-1.8224a4.3248,4.3248,0,0,1,2.088-2.1736,3.64,3.64,0,0,1,3.056-.0017,4.283,4.283,0,0,1,2.0673,2.158c.246.5338.4615,1.1568.6925,1.8252.24.6959.5,1.4474.8416,2.1932a8.9781,8.9781,0,0,0,.6052,1.1069c.409-.7571.6642-1.4675.3739-1.9528l-.0357-.0652a29.4631,29.4631,0,0,1-1.3351-2.9205,21.0928,21.0928,0,0,0-.93-2.0605,3.2834,3.2834,0,0,0-1.3235-1.2813A5.1828,5.1828,0,0,0,35.411,26.34a5.2359,5.2359,0,0,0-2.4851.6041,3.3307,3.3307,0,0,0-1.3451,1.2948,21.7621,21.7621,0,0,0-.9363,2.0648,29.3945,29.3945,0,0,1-1.3473,2.9248l-.02.0349,0,0Zm-.6976,3.84c-.9791-1.5783-1.9936-3.2136-1.0194-4.8534a28.5171,28.5171,0,0,0,1.24-2.7125,23.0647,23.0647,0,0,1,1.03-2.26,5.3075,5.3075,0,0,1,2.1342-2.084,7.2613,7.2613,0,0,1,3.4461-.8462,7.1841,7.1841,0,0,1,3.4427.8382,5.2559,5.2559,0,0,1,2.1126,2.07A22.8424,22.8424,0,0,1,41.99,29.52a27.9055,27.9055,0,0,0,1.2464,2.7349c1.0253,1.7325-.0116,3.424-.99,5.019l-.1194.1953a1,1,0,0,1-1.6324.1911,11.2553,11.2553,0,0,1-.9868-1.3014,10.9964,10.9964,0,0,1-.7821-1.421c-.3747-.819-.6536-1.6254-.9119-2.3729-.2058-.5953-.398-1.1509-.6222-1.6376A2.3187,2.3187,0,0,0,36.1,29.7454a1.6068,1.6068,0,0,0-1.3836.0017,2.3558,2.3558,0,0,0-1.1118,1.1973c-.22.4774-.4167,1.04-.6264,1.6427-.2557.7347-.5318,1.527-.9088,2.3505a10.9714,10.9714,0,0,1-.745,1.366,11.2516,11.2516,0,0,1-.936,1.2532l-.0008-.0006a.9841.9841,0,0,1-.2336.2.9968.9968,0,0,1-1.3714-.3243l-.2029-.3283Zm12.9013-3.9053a.9973.9973,0,0,1,.38-1.3019l-.38,1.3019Zm.0161.03-.0161-.03Z"/><path class="c" d="M61.02,13.93a.9987.9987,0,1,1-1.2342,1.57L47.7482,6.0262l-.0346-.0284a3.8891,3.8891,0,0,0-.7273-.45,1.0367,1.0367,0,0,0-.5406-.1259.4382.4382,0,0,0-.2565.1886,1.6575,1.6575,0,0,0-.19.3293l-.7469,1.9928-.0252.0615.0017.0009A2.8778,2.8778,0,0,1,42.556,9.5831a3.2408,3.2408,0,0,1-1.0551-.1658,2.5,2.5,0,0,1-.9538-.582,2.0606,2.0606,0,0,1-.4306-2.3465l1.34-3.4869a4.1468,4.1468,0,0,1,.5246-.9672,5.1325,5.1325,0,0,1,3.195-1.908A6.8991,6.8991,0,0,1,48.92.4416a5.7175,5.7175,0,0,1,1.3249.7132l.0071.0054L68.21,13.9025a.9974.9974,0,0,1-1.1565,1.6254L49.0964,2.7865l-.0315-.0221a3.6827,3.6827,0,0,0-.8561-.4632,4.8831,4.8831,0,0,0-2.65-.2135A3.1553,3.1553,0,0,0,43.59,3.2145a2.1459,2.1459,0,0,0-.2747.4983L41.976,7.2c-.0479.125-.049.1953-.0224.2217a.5335.5335,0,0,0,.1959.1052,1.225,1.225,0,0,0,.3986.0643.92.92,0,0,0,.8594-.4153l.726-1.9363a.9883.9883,0,0,1,.0442-.1177,3.6453,3.6453,0,0,1,.4331-.73,2.3544,2.3544,0,0,1,1.5225-.9386,2.9138,2.9138,0,0,1,1.6733.2744,5.916,5.916,0,0,1,1.1214.6891c.0184.0125.0366.0255.0544.04Z"/></svg>