<svg xmlns="http://www.w3.org/2000/svg" viewBox="0 0 79.4254 63.3062"><defs><style>.a{fill:#fff;}.a,.b,.c,.d,.e{fill-rule:evenodd;}.b{fill:#d1d3d4;}.c{fill:#e75864;}.d{fill:#86d2da;}.e{fill:#231f20;}</style></defs><polygon class="a" points="3.16 54.498 3.16 17.588 61.093 17.588 72.501 36.257 79.425 39.91 79.425 54.498 3.16 54.498"/><path class="b" d="M17.6738,45.9289A8.1886,8.1886,0,1,1,9.485,54.1174,8.1888,8.1888,0,0,1,17.6738,45.9289Z"/><path class="b" d="M66.0728,45.9289a8.1886,8.1886,0,1,1-8.1884,8.1885A8.1888,8.1888,0,0,1,66.0728,45.9289Z"/><polygon class="c" points="33.415 25.373 39.304 25.373 39.304 30.281 44.213 30.281 44.213 36.171 39.304 36.171 39.304 41.079 33.415 41.079 33.415 36.171 28.506 36.171 28.506 30.281 33.415 30.281 33.415 25.373"/><polygon class="d" points="64.061 22.408 72.457 36.172 52.939 36.172 52.939 22.408 64.061 22.408"/><path class="c" d="M45.2016,10.8627h0a4.1057,4.1057,0,0,1,4.094,4.094v2.6309H41.1075V14.9567A4.1059,4.1059,0,0,1,45.2016,10.8627Z"/><path class="c" d="M22.985,30.2808v5.89H3.4246v-5.89Z"/><path class="e" d="M4.284,53.498a1,1,0,1,1,0,2H1a1,1,0,0,1-1-1v-36.91a1,1,0,0,1,1-1H58.9332a1,1,0,0,1,.8892.5423l11.226,18.3725L77.73,39.0274a.9974.9974,0,0,1,.5329.883h.0023V54.4981a1,1,0,0,1-1,1h-2.264a1,1,0,1,1,0-2h1.2639V40.5111L69.8758,37.14v0a.99.99,0,0,1-.3867-.3631L58.3753,18.5876H2v34.91Zm48.3993,0H26.6021a1,1,0,1,0,0,2H52.6833a1,1,0,1,0,0-2Z"/><path class="e" d="M15.4432,44.9289A9.1894,9.1894,0,1,1,8.9459,47.62a9.1606,9.1606,0,0,1,6.4973-2.6915Zm5.0834,4.1054a7.19,7.19,0,1,0,2.1052,5.0831A7.1673,7.1673,0,0,0,20.5266,49.0343Z"/><path class="e" d="M63.8425,44.9289A9.1894,9.1894,0,1,1,57.3452,47.62a9.1606,9.1606,0,0,1,6.4973-2.6915Zm5.0834,4.1054a7.1893,7.1893,0,1,0,2.1053,5.0831A7.1673,7.1673,0,0,0,68.9259,49.0343Z"/><path class="e" d="M31.184,24.3726h5.89a1,1,0,0,1,1,1v3.9082h3.9087a1,1,0,0,1,1,1v5.89a1,1,0,0,1-1,1H38.0739v3.9087a1,1,0,0,1-1,1h-5.89a1,1,0,0,1-1-1V37.1707H26.2758a1,1,0,0,1-1-1v-5.89a1,1,0,0,1,1-1h3.9081V25.3726a1,1,0,0,1,1-1Zm4.89,2h-3.89v3.9081a1,1,0,0,1-1,1H27.2758v3.89H31.184a1,1,0,0,1,1,1v3.9087h3.89V36.1707a1,1,0,0,1,1-1h3.9087v-3.89H37.0738a1,1,0,0,1-1-1Z"/><path class="e" d="M15.4432,50.4658a3.6517,3.6517,0,1,1-3.6519,3.6516A3.6519,3.6519,0,0,1,15.4432,50.4658Z"/><path class="e" d="M58.3458,21.4073a1,1,0,1,1,0,2h-6.637V35.1723H66.7415a1,1,0,0,1,0,2H50.7087a1,1,0,0,1-1-1V22.4073a1,1,0,0,1,1-1Z"/><path class="e" d="M39.877,14.9567a1,1,0,1,1-2,0,5.0786,5.0786,0,0,1,1.4958-3.5946l.002-.0017.0017-.002.0025-.0025A5.0789,5.0789,0,0,1,42.971,9.8626h.0006a5.1067,5.1067,0,0,1,5.0941,5.0941,1,1,0,1,1-2,0,3.1055,3.1055,0,0,0-3.094-3.094H42.971a3.0825,3.0825,0,0,0-2.1844.906l-.0037.0037A3.0824,3.0824,0,0,0,39.877,14.9567Z"/><path class="e" d="M41.9715,1a1,1,0,1,1,2,0V7.348a1,1,0,0,1-2,0Z"/><path class="e" d="M32.2181,5.1662a1,1,0,0,1,1.4139-1.414l4.7715,4.7713A1,1,0,1,1,36.99,9.9374Z"/><path class="e" d="M52.3106,3.7522a1,1,0,0,1,1.4139,1.414l-4.771,4.7712A1,1,0,1,1,47.54,8.5235Z"/><path class="e" d="M4.3694,31.2809a1,1,0,1,1,0-2H20.7545a1,1,0,0,1,1,1v5.89a1,1,0,0,1-1,1H4.3694a1,1,0,1,1,0-2h15.385v-3.89Z"/><path class="e" d="M63.8425,50.4658a3.6517,3.6517,0,1,1-3.6519,3.6516A3.6519,3.6519,0,0,1,63.8425,50.4658Z"/></svg>