<svg xmlns="http://www.w3.org/2000/svg" viewBox="0 0 74.3634 44.4226"><defs><style>.a{fill:#86d2da;}.a,.b{fill-rule:evenodd;}.b{fill:#231f20;}</style></defs><path class="a" d="M61.816,32.5837l3.725-11.198C67.4346,15.6932,64.2127,8.29,58.1791,6.1319L46.2878,1.8746a21.9042,21.9042,0,0,0-12.2544,0L22.142,6.1319C16.1085,8.29,12.8866,15.6932,14.78,21.3857l3.725,11.198C23.3051,47.0132,56.9974,47.0685,61.816,32.5837Z"/><path class="b" d="M57.8968,32.271l3.7247-11.1979a11.3292,11.3292,0,0,0-.7344-8.36,10.9136,10.9136,0,0,0-6.0177-5.6395L42.9781,2.816A18.2454,18.2454,0,0,0,37.1892,2a18.2718,18.2718,0,0,0-5.7938.8158L19.5038,7.0733a10.9139,10.9139,0,0,0-6.0177,5.64,11.3292,11.3292,0,0,0-.7344,8.36L16.4764,32.271c1.35,4.0584,5.2467,6.912,10.1463,8.5417a33.9742,33.9742,0,0,0,10.57,1.6177,33.9,33.9,0,0,0,10.5693-1.6118c4.8906-1.6268,8.7809-4.479,10.1344-8.5476Zm5.6155-10.5726-3.7248,11.198c-1.5743,4.7324-5.9428,7.9976-11.4,9.8129a35.896,35.896,0,0,1-11.1946,1.7133,35.98,35.98,0,0,1-11.1957-1.7192c-5.4663-1.8181-9.841-5.0851-11.4117-9.807L10.861,21.6984a13.334,13.334,0,0,1,.828-9.853,12.9089,12.9089,0,0,1,7.143-6.6549L30.7236.9332A20.2759,20.2759,0,0,1,37.1892,0,20.2459,20.2459,0,0,1,43.65.9332L55.5412,5.1905a12.909,12.909,0,0,1,7.1431,6.6549A13.3344,13.3344,0,0,1,63.5123,21.6984Z"/><path class="b" d="M26.5408,11.1359a.996.996,0,0,1-.6718-1.8754L36.8289,5.31a.9939.9939,0,0,1,.6718,0L48.5039,9.2605a.996.996,0,0,1-.6718,1.8754L37.1654,7.306Z"/><path class="b" d="M21.5269,33.3678a.9978.9978,0,0,1,.7812-1.8363,36.1609,36.1609,0,0,0,29.7525.004.9957.9957,0,1,1,.7891,1.8283A38.07,38.07,0,0,1,21.5269,33.3678Z"/><path class="b" d="M22.3081,20.0532a.9978.9978,0,0,1-.7812-1.8363,38.07,38.07,0,0,1,31.3228.0039.9957.9957,0,0,1-.7891,1.8284A36.1617,36.1617,0,0,0,22.3081,20.0532Z"/><path class="b" d="M21.9175,27.5854a1,1,0,1,1,0-2H52.4551a1,1,0,1,1,0,2Z"/><path class="b" d="M15.3357,4.24a.9957.9957,0,1,1-1.2733,1.5312c-2.8255-2.355-5.303-3.3842-7.2717-3.3976a4.2952,4.2952,0,0,0-2.8363.95A5.3069,5.3069,0,0,0,2.302,6.0707c-.6528,2.3842-.3126,5.6767,1.3184,9.3725a37.7546,37.7546,0,0,0,3.492,6.0641c1.368,1.9823,2.886,3.9059,4.34,5.6622a.9988.9988,0,0,1-1.5392,1.2734c-1.469-1.7745-3.015-3.7355-4.4417-5.8028a39.7491,39.7491,0,0,1-3.68-6.3925C-.0309,12.1167-.3869,8.3486.38,5.5474A7.2741,7.2741,0,0,1,2.681,1.7847,6.24,6.24,0,0,1,6.7986.3819C9.2064.3983,12.1281,1.567,15.3357,4.24Z"/><path class="b" d="M60.3006,5.7716A.9957.9957,0,1,1,59.0273,4.24C62.235,1.567,65.1569.3983,67.5647.3819a6.24,6.24,0,0,1,4.1176,1.4028,7.276,7.276,0,0,1,2.3008,3.7627c.7671,2.8012.4111,6.57-1.4119,10.7a39.7706,39.7706,0,0,1-3.68,6.3925c-1.4267,2.0673-2.9727,4.0283-4.4416,5.8028A.9989.9989,0,0,1,62.9107,27.17c1.4542-1.7563,2.9722-3.68,4.34-5.6622a37.7772,37.7772,0,0,0,3.492-6.0641c1.631-3.6958,1.9712-6.988,1.3184-9.3725a5.3069,5.3069,0,0,0-1.6524-2.7468,4.2952,4.2952,0,0,0-2.8363-.95C65.6039,2.3874,63.1262,3.4166,60.3006,5.7716Z"/></svg>