<svg xmlns="http://www.w3.org/2000/svg" viewBox="0 0 18.4873 74.8006"><defs><style>.a{fill:#d1d3d4;}.a,.b,.c{fill-rule:evenodd;}.b{fill:#86d2da;}.c{fill:#231f20;}</style></defs><path class="a" d="M17.7168,12.1286V43.89c0,2.6433-2.6889,4.805-5.9765,4.805h-.0009c-3.2876,0-5.9768-2.1617-5.9768-4.805V12.1286H7.6992V.9992h8.0813V12.1286Z"/><path class="b" d="M17.7168,23.6137V43.89c0,2.06-1.6353,3.83-3.9152,4.5085v5.7733A2.1455,2.1455,0,0,1,11.74,56.3811h0a2.1454,2.1454,0,0,1-2.0617-2.2093V48.399c-2.28-.6786-3.916-2.4471-3.916-4.509V23.6137Z"/><path class="c" d="M14.2206,12.5578a1,1,0,1,1,2,0V44.1967a5.003,5.003,0,0,1-2.1577,3.9739,8.0614,8.0614,0,0,1-4.8192,1.5247H9.2432a8.06,8.06,0,0,1-4.8189-1.5247,5.003,5.003,0,0,1-2.158-3.9739V12.5578a1,1,0,1,1,2,0V44.1967a3.0491,3.0491,0,0,0,1.3536,2.38,6.0582,6.0582,0,0,0,3.6232,1.1183h.0006a6.0592,6.0592,0,0,0,3.6235-1.1183,3.05,3.05,0,0,0,1.3533-2.38Z"/><path class="c" d="M17.4872,11.1286a1,1,0,1,1,0,2H1a1,1,0,1,1,0-2Z"/><path class="c" d="M17.4872,0a1,1,0,1,1,0,2H1A1,1,0,1,1,1,0Z"/><path class="c" d="M12.2839,1.12a1,1,0,1,1,2,0V8.7911a1,1,0,0,1-2,0V1.12ZM6.2031,8.7911a1,1,0,1,1-2,0V1.12a1,1,0,0,1,2,0Z"/><path class="c" d="M10.3054,51.4772a1,1,0,1,1,2,0v2.6943a3.2823,3.2823,0,0,1-.8751,2.24,2.9506,2.9506,0,0,1-4.373,0,3.2841,3.2841,0,0,1-.875-2.24V51.4772a1,1,0,1,1,2,0v2.6943a1.2875,1.2875,0,0,0,.3359.881.9649.9649,0,0,0,1.451,0,1.2872,1.2872,0,0,0,.336-.8807Z"/><path class="c" d="M8.2437,56.5115a1,1,0,1,1,2,0V73.8006a1,1,0,0,1-2,0Z"/><path class="c" d="M14.4836,17.3676a1,1,0,1,1,0,2H9.3393a1,1,0,1,1,0-2Z"/><path class="c" d="M14.4836,22.6423a1,1,0,1,1,0,2h-3.261a1,1,0,0,1,0-2Z"/><path class="c" d="M14.4836,27.9173a1,1,0,1,1,0,2H9.3393a1,1,0,1,1,0-2Z"/><path class="c" d="M14.4836,33.192a1,1,0,1,1,0,2h-3.261a1,1,0,0,1,0-2Z"/><path class="c" d="M14.4836,38.4667a1,1,0,0,1,0,2H9.3393a1,1,0,1,1,0-2Z"/></svg>