<svg xmlns="http://www.w3.org/2000/svg" viewBox="0 0 64.921 63.5669"><defs><style>.a{fill:#86d2da;}.a,.b,.c{fill-rule:evenodd;}.b{fill:#e75864;}.c{fill:#231f20;}</style></defs><path class="a" d="M34.1373,14.24A17.5438,17.5438,0,1,1,16.5934,31.7837,17.5439,17.5439,0,0,1,34.1373,14.24Z"/><path class="b" d="M34.1373,1a3.0514,3.0514,0,1,1-3.0515,3.0515A3.0513,3.0513,0,0,1,34.1373,1Z"/><path class="b" d="M34.1373,56.4641a3.0514,3.0514,0,1,1-3.0515,3.0515A3.0515,3.0515,0,0,1,34.1373,56.4641Z"/><path class="b" d="M64.921,31.7834A3.0514,3.0514,0,1,1,61.87,28.7325,3.0514,3.0514,0,0,1,64.921,31.7834Z"/><path class="b" d="M9.4569,31.7834a3.0515,3.0515,0,1,1-3.0515-3.0509A3.0514,3.0514,0,0,1,9.4569,31.7834Z"/><path class="a" d="M14.6869,12.3329a2.7264,2.7264,0,1,1,0,3.856A2.7257,2.7257,0,0,1,14.6869,12.3329Z"/><path class="a" d="M49.7319,47.378a2.7266,2.7266,0,1,1,0,3.8562A2.7262,2.7262,0,0,1,49.7319,47.378Z"/><path class="a" d="M53.5878,12.3329a2.7265,2.7265,0,1,1-3.8557,0A2.7268,2.7268,0,0,1,53.5878,12.3329Z"/><path class="a" d="M18.5425,47.378a2.7265,2.7265,0,1,1-3.8556.0005A2.726,2.726,0,0,1,18.5425,47.378Z"/><path class="b" d="M34.1373,19.0814a3.3545,3.3545,0,1,1-3.3545,3.3545A3.3546,3.3546,0,0,1,34.1373,19.0814Z"/><path class="b" d="M34.1373,37.7767a3.3544,3.3544,0,1,1-3.3545,3.3545A3.3546,3.3546,0,0,1,34.1373,37.7767Z"/><path class="b" d="M45.4476,31.7834a2.5823,2.5823,0,1,1-2.5824-2.582A2.5823,2.5823,0,0,1,45.4476,31.7834Z"/><path class="b" d="M27.9913,31.7834a2.5821,2.5821,0,1,1-2.5821-2.582A2.5822,2.5822,0,0,1,27.9913,31.7834Z"/><path class="c" d="M31.7835,13.24a18.5441,18.5441,0,1,1-13.1123,5.4315A18.4853,18.4853,0,0,1,31.7835,13.24Zm11.6983,6.8457a16.5444,16.5444,0,1,0,4.8455,11.6983A16.4917,16.4917,0,0,0,43.4818,20.0854Z"/><path class="c" d="M31.7837,0a4.04,4.04,0,0,1,2.8625,1.1888l.0019-.002a4.05,4.05,0,0,1,0,5.7291q-.0306.0306-.0629.0579a4.0414,4.0414,0,0,1-5.6625-.0576l-.0017-.002-.002.002a4.0508,4.0508,0,0,1,0-5.7294c.02-.02.0414-.04.063-.0578A4.0381,4.0381,0,0,1,31.7837,0Zm1.4505,2.5971a2.0613,2.0613,0,0,0-2.8607-.0394l-.0405.0431a2.0522,2.0522,0,0,0,0,2.9015l-.0017.0017a2.0613,2.0613,0,0,0,2.8624.0411l.0405-.0431a2.0518,2.0518,0,0,0,0-2.9012l.002-.002Z"/><path class="c" d="M31.7837,55.4641a4.0514,4.0514,0,1,1-2.861,6.9162l-.0017-.002-.002.002a4.0515,4.0515,0,0,1,2.8647-6.9162Zm1.4505,2.6008a2.0516,2.0516,0,0,0-2.9012,2.9015l-.0017.0017a2.0528,2.0528,0,0,0,2.9029-2.9032Z"/><path class="c" d="M30.7837,7.0469a1,1,0,1,1,2,0V14.24a1,1,0,1,1-2,0V7.0469Zm0,42.28a1,1,0,0,1,2,0V56.52a1,1,0,0,1-2,0Z"/><path class="c" d="M56.5206,30.7834a1,1,0,0,1,0,2H49.3271a1,1,0,1,1,0-2Zm-42.2811,0a1,1,0,1,1,0,2H7.0472a1,1,0,1,1,0-2Z"/><path class="c" d="M63.5672,31.7834a4.0514,4.0514,0,1,1-6.914-2.8621l-.002-.002a4.0462,4.0462,0,0,1,5.7255,0l.0017.002.0019-.002a4.0392,4.0392,0,0,1,1.1869,2.8644Zm-2.6008,1.4508a2.052,2.052,0,0,0,0-2.9013l.0017-.0017a2.0566,2.0566,0,0,0-2.9029.002l-.002-.002-.0017.002a2.0527,2.0527,0,0,0,2.9049,2.901Z"/><path class="c" d="M8.1031,31.7834a4.0516,4.0516,0,1,1-6.9143-2.8621l-.0019-.002a4.05,4.05,0,0,1,5.7293,0c.0205.02.04.0414.0579.0629a4.0376,4.0376,0,0,1,1.129,2.8012ZM5.5023,33.2342a2.0563,2.0563,0,0,0,.0431-2.86l-.0431-.0406a2.0524,2.0524,0,0,0-2.9015,0l-.002-.002-.0017.002a2.0528,2.0528,0,0,0,2.9052,2.901Z"/><path class="c" d="M11.6263,11.626l.0011-.0011c.02-.02.0411-.0394.0627-.0576a3.7153,3.7153,0,0,1,5.2007.0576l.0017.0019.002-.0019.0011.0011c.02.02.0394.0411.0576.0626a3.7158,3.7158,0,0,1-.06,5.2053l.002.002,0,0a3.7208,3.7208,0,0,1-5.265,0l-.0017-.002-.002.002,0,0-.0014-.0014q-.03-.03-.0576-.0627a3.7206,3.7206,0,0,1,.0576-5.2044l.0014-.0014Zm1.415,1.4128L13.04,13.04l-.0014.0014a1.7316,1.7316,0,0,0-.04,2.401l.04.0382.0014.0015,0,0-.0017.0017a1.7309,1.7309,0,0,0,2.4426-.0017l0,0,.002.0019.0017-.0019a1.7361,1.7361,0,0,0,.0365-2.4041l-.04-.038-.0011-.0011.0017-.0017a1.7352,1.7352,0,0,0-2.4027-.0389Z"/><path class="c" d="M46.671,46.671l.0006-.0006a3.7152,3.7152,0,0,1,2.6342-1.091v.0039a3.716,3.716,0,0,1,2.6348,1.0877l.0006.0006a3.7219,3.7219,0,0,1,0,5.2659l-.002.0017.002.002a3.7208,3.7208,0,0,1-5.2662,0l-.0037-.0037a3.7171,3.7171,0,0,1,0-5.2628l.002-.0017-.002-.002Zm1.4145,1.4133-.0006.0006-.0017-.0017a1.7282,1.7282,0,0,0,2.4441,2.444l.0017.0017a1.7321,1.7321,0,0,0-.0017-2.4434l-.0006-.0006a1.7245,1.7245,0,0,0-1.2209-.5094v.004A1.7209,1.7209,0,0,0,48.0855,48.0843Z"/><path class="c" d="M15.495,16.9089a1,1,0,0,1,1.4139-1.4139l3.1765,3.1765a1,1,0,0,1-1.4139,1.4139L15.495,16.9089Zm27.9868,27.987a1,1,0,0,1,1.4139-1.4139l3.1768,3.1765a1,1,0,0,1-1.414,1.4139Z"/><path class="c" d="M46.6585,15.495a1,1,0,0,1,1.414,1.4139l-3.1768,3.1765a1,1,0,0,1-1.4139-1.4139l3.1767-3.1765ZM18.6712,43.482a1,1,0,0,1,1.414,1.4139l-3.1765,3.1765a1,1,0,0,1-1.414-1.4139Z"/><path class="c" d="M51.9412,11.63a3.7238,3.7238,0,1,1-5.2662,5.2662l-.0017-.002-.002.002a3.7251,3.7251,0,1,1,5.27-5.2662Zm-.9085,2.6314a1.7266,1.7266,0,1,0-2.9475,1.2209l-.0017.0017a1.7282,1.7282,0,0,0,2.9492-1.2226Z"/><path class="c" d="M16.9534,46.7336a3.7213,3.7213,0,0,1-.0578,5.2076l-.0011.0011c-.02.02-.0411.0394-.0627.0575a3.7152,3.7152,0,0,1-5.2007-.0575l-.0017-.002-.002.002-.0011-.0011,0,0c-.02-.02-.0394-.0411-.0575-.0627a3.72,3.72,0,0,1,.0575-5.2064l0,0,.0008-.0009c.02-.02.0411-.0394.0627-.0575a3.7158,3.7158,0,0,1,5.2016.0569l.0017.002.0019-.002.0009.0009c.02.02.0394.0411.0575.0626Zm-.966,2.5725a1.7255,1.7255,0,0,0-.4652-1.1832l-.04-.038-.0009-.0008.0017-.0017a1.7354,1.7354,0,0,0-2.4029-.0389l-.0388.0411-.0009.0009,0,0A1.7311,1.7311,0,0,0,13,50.489l.04.038,0,0,.0011.0012L13.04,50.53a1.7353,1.7353,0,0,0,2.4027.0388l.0383-.0405.0011-.0012A1.722,1.722,0,0,0,15.9874,49.3061Z"/><path class="c" d="M31.7835,18.0813a4.3386,4.3386,0,0,1,3.0753,1.2756l.0036.0037a4.3449,4.3449,0,0,1,0,6.1506l-.0036.0037a4.3491,4.3491,0,0,1-6.1541,0c-.02-.02-.0394-.0414-.0578-.0629a4.3446,4.3446,0,0,1,.0578-6.0914l.002-.0017-.002-.002a4.3423,4.3423,0,0,1,3.0788-1.2756ZM33.45,20.7691a2.3594,2.3594,0,0,0-3.3315.0017l-.0017-.0017a2.3643,2.3643,0,0,0-.04,3.2928l.0417.0391A2.3559,2.3559,0,0,0,33.45,20.7691Z"/><path class="c" d="M31.7835,36.7767a4.3382,4.3382,0,0,1,3.0753,1.2756l.0036.0036a4.3491,4.3491,0,0,1,0,6.1541c-.02.02-.0413.0394-.0629.0578a4.3515,4.3515,0,0,1-6.0948-6.2119l.002-.0017-.002-.0019a4.3418,4.3418,0,0,1,3.0788-1.2756ZM33.45,39.4645a2.3592,2.3592,0,0,0-3.3315.0017l-.0017-.0017a2.357,2.357,0,0,0,3.2924,3.3732l.0391-.0417a2.3592,2.3592,0,0,0,.0017-3.3315Z"/><path class="c" d="M42.6285,23.17a2.2313,2.2313,0,1,1-2.2311-2.2311A2.2314,2.2314,0,0,1,42.6285,23.17Z"/><path class="c" d="M25.4015,40.3968A2.2314,2.2314,0,1,1,23.17,38.1656,2.2316,2.2316,0,0,1,25.4015,40.3968Z"/><path class="c" d="M40.3974,42.6282a2.2313,2.2313,0,1,1,2.2314-2.2314A2.2317,2.2317,0,0,1,40.3974,42.6282Z"/><path class="c" d="M23.17,25.4009A2.2313,2.2313,0,1,1,25.4015,23.17,2.2314,2.2314,0,0,1,23.17,25.4009Z"/><path class="c" d="M44.0938,31.7834a3.5727,3.5727,0,0,1-1.0514,2.5308l.002.002a3.5768,3.5768,0,0,1-5.0619,0l-.0017-.002-.0019.002a3.5767,3.5767,0,0,1,0-5.0618l.0036-.0037a3.5768,3.5768,0,0,1,5.0619,0c.02.02.0391.0408.0572.0623a3.5666,3.5666,0,0,1,.9922,2.47Zm-2.46,1.1189a1.5922,1.5922,0,0,0,.036-2.2l-.04-.0374a1.5823,1.5823,0,0,0-2.2376,2.2377l-.0017.0017a1.5869,1.5869,0,0,0,2.2393-.0017l.002.002Z"/><path class="c" d="M26.6377,31.7834a3.5725,3.5725,0,0,1-1.0494,2.5328c-.02.02-.0408.0391-.0623.0573a3.5724,3.5724,0,0,1-5-.0573l-.0017-.002-.002.002a3.5769,3.5769,0,0,1,0-5.0618l.0037-.0037a3.5727,3.5727,0,0,1,5.0585,0l.0036.0037a3.5682,3.5682,0,0,1,1.0494,2.529Zm-2.4633,1.1189a1.5822,1.5822,0,1,0-2.2379,0l-.0017.0017a1.5921,1.5921,0,0,0,2.2022.038Z"/></svg>